<svg id="cash-coin" xmlns="http://www.w3.org/2000/svg" width="26" height="26" viewBox="0 0 26 26">
  <path id="Tracé_3239" data-name="Tracé 3239" d="M14.125,20.625a6.5,6.5,0,1,0-6.5-6.5A6.5,6.5,0,0,0,14.125,20.625Zm8.125-6.5A8.125,8.125,0,1,1,14.125,6,8.125,8.125,0,0,1,22.25,14.125Z" transform="translate(3.75 3.75)" fill="#44680e" fill-rule="evenodd"/>
  <path id="Tracé_3240" data-name="Tracé 3240" d="M9.439,14.1c.076.969.842,1.722,2.215,1.813v.715h.609v-.72c1.422-.1,2.252-.86,2.252-1.961,0-1-.634-1.521-1.771-1.788l-.481-.114v-1.95a1.138,1.138,0,0,1,1.09.865h1.069a2.056,2.056,0,0,0-2.16-1.744V8.5h-.609v.731a1.99,1.99,0,0,0-2.039,1.882c0,.913.614,1.5,1.636,1.732l.4.1v2.067a1.229,1.229,0,0,1-1.131-.915H9.437Zm2.21-2.2c-.6-.138-.925-.423-.925-.848a.986.986,0,0,1,.929-.939V11.9h0Zm.7,1.212c.73.169,1.064.442,1.064.925,0,.551-.418.928-1.152,1V13.089Z" transform="translate(5.898 5.313)" fill="#44680e"/>
  <path id="Tracé_3241" data-name="Tracé 3241" d="M1.625,0A1.625,1.625,0,0,0,0,1.625v13A1.625,1.625,0,0,0,1.625,16.25H8.26a9.851,9.851,0,0,1,.419-1.625h-3.8a3.25,3.25,0,0,0-3.25-3.25v-6.5a3.25,3.25,0,0,0,3.25-3.25h16.25a3.25,3.25,0,0,0,3.25,3.25v5.733A9.783,9.783,0,0,1,26,12.483V1.625A1.625,1.625,0,0,0,24.375,0Z" fill="#44680e"/>
  <path id="Tracé_3242" data-name="Tracé 3242" d="M12.5,6.384l0-.135a3.25,3.25,0,1,0-5.09,2.681A9.721,9.721,0,0,1,12.5,6.384Z" transform="translate(3.75 1.876)" fill="#44680e"/>
</svg>
