<svg xmlns="http://www.w3.org/2000/svg" width="25.802" height="21.502" viewBox="0 0 25.802 21.502">
  <g id="shopping-basket_1_" data-name="shopping-basket (1)" transform="translate(74 -30.667)">
    <g id="Groupe_2695" data-name="Groupe 2695" transform="translate(-74 30.667)">
      <path id="Tracé_1659" data-name="Tracé 1659" d="M25.265,50.192H20.857L15.843,42.9a.538.538,0,0,0-.747-.139l-.886.609a.538.538,0,0,0-.139.748l4.176,6.075H7.555l4.176-6.075a.538.538,0,0,0-.139-.748l-.886-.609a.538.538,0,0,0-.747.139L4.946,50.192H.538A.538.538,0,0,0,0,50.73V51.8a.538.538,0,0,0,.538.538H1.22L4.506,62.67a2.143,2.143,0,0,0,2.049,1.5H19.248a2.143,2.143,0,0,0,2.049-1.5l3.286-10.327h.682A.538.538,0,0,0,25.8,51.8V50.73A.538.538,0,0,0,25.265,50.192Z" transform="translate(0 -42.667)" fill="#44680e"/>
    </g>
  </g>
</svg>
