<svg xmlns="http://www.w3.org/2000/svg" width="14" height="16" viewBox="0 0 14 16">
  <path id="trash3-fill_1_" data-name="trash3-fill (1)" d="M11,1.5v1h3.5a.5.5,0,0,1,0,1h-.538l-.853,10.66A2,2,0,0,1,11.115,16H4.885a2,2,0,0,1-1.994-1.84L2.038,3.5H1.5a.5.5,0,0,1,0-1H5v-1A1.5,1.5,0,0,1,6.5,0h3A1.5,1.5,0,0,1,11,1.5Zm-5,0v1h4v-1A.5.5,0,0,0,9.5,1h-3a.5.5,0,0,0-.5.5ZM4.5,5.029l.5,8.5a.5.5,0,1,0,1-.06l-.5-8.5a.5.5,0,1,0-1,.06ZM11.03,4.5a.5.5,0,0,0-.528.47l-.5,8.5a.5.5,0,0,0,1,.058l.5-8.5a.5.5,0,0,0-.47-.528ZM8,4.5a.5.5,0,0,0-.5.5v8.5a.5.5,0,0,0,1,0V5A.5.5,0,0,0,8,4.5Z" transform="translate(-1)"/>
</svg>
