<svg xmlns="http://www.w3.org/2000/svg" width="1000" height="750" viewBox="0 0 29 21.75">
    <g id="camera_1_" data-name="camera (1)" transform="translate(0 -2)">
        <path id="Path_3268" data-name="Path 3268" d="M27.188,20.125a1.812,1.812,0,0,1-1.812,1.813H3.625a1.812,1.812,0,0,1-1.812-1.812V9.25A1.813,1.813,0,0,1,3.625,7.438H5.749A5.437,5.437,0,0,0,9.592,5.844l1.5-1.5a1.812,1.812,0,0,1,1.278-.531h4.248a1.812,1.812,0,0,1,1.281.531l1.5,1.5a5.438,5.438,0,0,0,3.846,1.593h2.124A1.812,1.812,0,0,1,27.188,9.25ZM3.625,5.625A3.625,3.625,0,0,0,0,9.25V20.125A3.625,3.625,0,0,0,3.625,23.75h21.75A3.625,3.625,0,0,0,29,20.125V9.25a3.625,3.625,0,0,0-3.625-3.625H23.251a3.625,3.625,0,0,1-2.562-1.062l-1.5-1.5A3.625,3.625,0,0,0,16.624,2H12.376A3.625,3.625,0,0,0,9.813,3.062l-1.5,1.5A3.625,3.625,0,0,1,5.749,5.625Z" transform="translate(0)" fill="#fff"/>
        <path id="Path_3269" data-name="Path 3269" d="M12.875,15.875a4.531,4.531,0,1,1,4.531-4.531A4.531,4.531,0,0,1,12.875,15.875Zm0,1.813a6.344,6.344,0,1,0-6.344-6.344A6.344,6.344,0,0,0,12.875,17.688ZM3.813,7.719a.906.906,0,1,1-.906-.906A.906.906,0,0,1,3.813,7.719Z" transform="translate(1.625 2.438)" fill="#fff"/>
    </g>
</svg>
