<svg xmlns="http://www.w3.org/2000/svg" version="1.1" xmlns:xlink="http://www.w3.org/1999/xlink" xmlns:svgjs="http://svgjs.com/svgjs" width="512" height="512" x="0" y="0" viewBox="0 0 256 256" style="enable-background:new 0 0 512 512" xml:space="preserve" class=""><g><path fill="#cccccc" d="M232.233 205.489a3678.57 3678.57 0 0 0-17.147 9.798 4870.842 4870.842 0 0 0-19.921 11.347l-1.693.973-.756.432c-.576.324-1.009.576-1.297.756-.54.324-.937.54-1.189.684a10.28 10.28 0 0 1-.684.396c-4.755 2.81-9.762 5.728-13.905 8.213-5.475 3.206-12.5 1.369-15.67-4.143l-4.719-8.177c-6.628-12.5-18.011-21.254-32.673-25.072L74.201 187.73c-7.132-1.873-12.104-8.862-10.699-16.102.793-4.143 3.278-7.385 6.592-9.33 3.062-1.729 6.808-2.342 10.483-1.333l29.034 7.745-12.5-21.65-33.789-58.502C59.36 81.714 61.521 72.6 68.546 68.89a13.914 13.914 0 0 1 9.942-1.081 13.667 13.667 0 0 1 8.357 6.412l27.522 47.622c-3.818-6.628-1.585-15.021 5.007-18.84a13.995 13.995 0 0 1 10.483-1.369 13.798 13.798 0 0 1 8.357 6.412l4.106 7.132c-3.818-6.592-1.549-14.985 5.043-18.804 3.314-1.909 7.025-2.306 10.447-1.369 3.386.865 6.448 3.098 8.357 6.412l4.143 7.132c-3.818-6.628-1.585-15.021 5.007-18.84 3.314-1.909 7.06-2.269 10.483-1.369a13.667 13.667 0 0 1 8.357 6.412l33.249 57.601c2.63 4.503 3.747 9.906 2.378 14.95a18.98 18.98 0 0 0 1.873 14.337l4.755 8.249c3.17 5.477 1.297 12.466-4.179 15.6z" data-original="#d4e3ff" class=""></path><g fill="#2673ff"><path d="M16.179 50.794c-7.314 27.311 8.956 55.482 36.266 62.796a3.598 3.598 0 0 0 4.411-2.547 3.601 3.601 0 0 0-2.547-4.411c-23.475-6.286-37.458-30.5-31.172-53.973 6.301-23.522 30.42-37.527 53.982-31.219 23.499 6.292 37.5 30.53 31.21 54.029a3.601 3.601 0 0 0 2.547 4.411 3.598 3.598 0 0 0 4.411-2.547c3.546-13.246 1.724-27.079-5.133-38.948-6.856-11.869-17.927-20.358-31.172-23.904-27.318-7.313-55.451 8.861-62.803 36.313z" fill="#ffffff" data-original="#2673ff" class=""></path><path d="M173.529 86.602c-3.507 2.025-6.142 5.127-7.556 8.849-5.294-4.856-13.549-6.168-20.414-2.2-3.507 2.026-6.142 5.129-7.556 8.851-5.278-4.841-13.531-6.182-20.414-2.2-3.212 1.854-5.692 4.61-7.173 7.919L93.919 79.259c2.342 1.311 4.663-.144 5.201-2.155 4.517-16.868-5.53-34.266-22.398-38.783-16.868-4.519-34.239 5.541-38.756 22.407-4.513 16.854 5.527 34.238 22.381 38.749 1.655.446 3.293-.34 4.074-1.808l37.729 65.321-20.622-5.509c-9.87-2.688-19.677 3.668-21.568 13.461-1.717 8.918 4.126 17.828 13.297 20.284l48.42 12.965c25.969 6.728 31.08 26.228 35.179 31.573 4.176 7.23 13.431 9.677 20.622 5.412 17.533-10.388 54.889-31.623 56.55-32.563 7.202-4.11 9.694-13.288 5.523-20.513-2.532-5.518-8.687-10.927-6.276-19.871 1.537-5.68.566-11.955-2.733-17.67L197.27 92.956c-4.963-8.579-15.681-11.016-23.741-6.354zM44.924 62.593c3.49-13.034 16.946-20.787 29.933-17.313 13.03 3.49 20.794 16.93 17.304 29.96-.079.297-.051.588-.055.882l-2.137-3.699c-4.732-8.193-14.911-10.962-23.119-6.71-8.827 4.657-11.609 16.072-6.659 24.637l1.078 1.867c-12.436-3.875-19.745-16.93-16.345-29.624zm181.394 103.759c-3.357 12.449 4.841 20.416 6.99 25.353 2.165 3.743.9 8.505-2.857 10.654-49.004 27.984-38.076 21.619-56.648 32.619-3.731 2.212-8.536.947-10.708-2.816-4.04-5.217-10.257-27.339-39.583-34.938L75.12 184.268c-5.541-1.485-9.09-6.738-8.088-11.962 1.129-5.832 6.918-9.427 12.615-7.868l29.036 7.755c3.082.819 5.655-2.501 4.049-5.282l-46.3-80.166c-2.956-5.113-1.333-11.964 3.757-14.648 4.662-2.417 10.695-1.001 13.54 3.928l27.503 47.614v.002a3.605 3.605 0 0 0 4.921 1.316 3.6 3.6 0 0 0 1.319-4.92v-.002a10.133 10.133 0 0 1 3.722-13.894c2.35-1.363 5.097-1.718 7.732-1.015 2.603.682 4.788 2.364 6.156 4.737l4.105 7.097c.004.011.011.019.014.03a3.605 3.605 0 0 0 4.921 1.316 3.6 3.6 0 0 0 1.319-4.921 10.136 10.136 0 0 1 3.718-13.894c4.714-2.72 10.981-1.317 13.896 3.72l4.112 7.122c.004.002.004.004.004.007a3.606 3.606 0 0 0 4.921 1.316 3.6 3.6 0 0 0 1.319-4.92l-.014-.025a10.14 10.14 0 0 1 3.732-13.871c4.686-2.704 10.977-1.341 13.896 3.72l33.272 57.603c2.303 3.986 3.042 8.427 2.021 12.189z" fill="#ffffff" data-original="#2673ff" class=""></path></g></g></svg>