<svg xmlns:svgjs="http://svgjs.com/svgjs" xmlns="http://www.w3.org/2000/svg" xmlns:xlink="http://www.w3.org/1999/xlink" version="1.1" id="SvgjsSvg1128" x="0px" y="0px" viewBox="0 0 550 550" style="enable-background:new 0 0 550 550;" xml:space="preserve">
<style type="text/css">
	.st0{fill:#CECCCD;}
	.st1{fill:#FFFFFF;stroke:#231F20;stroke-width:1.65;stroke-linecap:round;stroke-linejoin:round;stroke-miterlimit:2.2;}
	.st2{fill:#44680E;}
	.st3{fill:#F45D4A;}
	.st4{fill:none;stroke:#231F20;stroke-width:1.65;stroke-linecap:round;stroke-linejoin:round;stroke-miterlimit:2.2;}
	.st5{fill:#231F20;stroke:#231F20;stroke-width:1.65;stroke-miterlimit:5.5;}
	.st6{fill:none;stroke:#44680E;stroke-width:1.65;stroke-linecap:round;stroke-miterlimit:5.5;}
	.st7{fill:#FFFFFF;stroke:#231F20;stroke-width:1.65;stroke-miterlimit:5.5;}
	.st8{fill:#231F20;stroke:#231F20;stroke-width:1.65;stroke-linecap:round;stroke-linejoin:round;stroke-miterlimit:2.2;}
	.st9{fill:none;stroke:#44680E;stroke-width:1.65;stroke-linecap:round;stroke-linejoin:round;stroke-miterlimit:2.2;}
	.st10{fill:#FFFFFF;}
	.st11{fill:#F45D4A;stroke:#231F20;stroke-width:1.65;stroke-linecap:round;stroke-linejoin:round;stroke-miterlimit:2.2;}
</style>
    <g id="SvgjsG1130">
	<path class="st0" d="M426.7,201.6c-3.7-0.3-23.9-0.8-28.7-1.2c1.8-21.7,0.2-97.5-50.5-114c-12.5-4.1-52.7-7.8-67.9-5.1   c-23.8,4.3-47,22.6-58.6,40.5c-18.5,28.7-19.4,63.5-30.3,88.7c-14.5,4.6-31.9,10.3-42.4,13.7c-5.4,1.7-8.8,7-8.2,12.7   c1.7,15.5,4.4,46.3,1.4,67.2c-4.2,28.9-14,44.6-23.8,72.1c-4.8,13.5-9.6,27-14.4,40.5c-1.5,4.4,0.7,9.1,5.1,10.7c0,0,0.1,0,0.1,0.1   c50.2,16.7,101.4,32.8,154.2,32.4c25.1-0.2,50.1-4.1,74.9-8.1c17.1-2.7,34.3-5.4,51.4-8.2c8.8-1.4,17.8-2.9,26.2-5.8   c4-1.4,6.1-5.9,4.7-9.9c-0.1-0.2-0.2-0.4-0.3-0.6c-3.8-8.4-6-17.5-7.7-26.6c-11.2-58.8-4.5-107.8,17.3-163.6   c2.7-6.9,5.7-13.8,7.5-21c1.6-6.1-2-12.5-8.1-14.1C427.9,201.8,427.3,201.7,426.7,201.6z M224.3,201.2c1.4-3.4,1.8-19.9,3.1-24   c5-16.9,9.5-34.5,20.1-48.6c17.7-23.7,49-22.9,66.2-22.4c15.4,0.5,32.1,5.1,43.6,15.3c14.2,12.7,6.2,52.6,12.3,76.1   C352.1,196,263.5,193.5,224.3,201.2L224.3,201.2z"/>
        <path class="st1" d="M215.5,380.9c-0.9-0.9-1.9-1.7-3-2.4c-1.8-1-3.7,0.7-3.2,2.6c1.8,6.6,5.9,5.8,8.6,9.4c0.9,1.2-0.1,2.5-1.7,2   c-2.5-0.8-10.6-2.2-12-10.6c0.9,6.5,5.4,7.8,7.9,13c0.3,0.7,0,1.8-0.6,2.1c-1.8,0.7-11.8-5.5-13-12.5c1.1,6.1,4.9,7.2,7.2,11.6   c0.4,0.8,0.6,2.1-0.2,2.5c-1.6,0.8-10.8-6.5-11.9-11.7c0.9,5.2,6.4,8.7,5.1,9.2c-3.7,1.5-22.4-23.7-9.6-34c4.6-3.7,11-0.4,14.5,4   c3.6,4.6,10.1,5.2,13.9,9.7c1.7,2,4.2,8.1,1,8.5C217.3,384.8,216.5,382,215.5,380.9z"/>
        <path class="st2" d="M333.3,319.2c-1.5-6.8-18.3-26.6-24-30.5c-5.7-3.9-8.5-6.9-15-9.2c-6.4-2.3-13.2-3.1-20-2.4   c-5.7,0.6-11,1.6-16.1,4.2c-10.7,5.5-21.5,11-32.2,16.5c-6.3,3.2-12.7,6.5-19.6,8c-7.3,1.6-15.1,1.3-21.7,4.7   c-7.7,3.9-13.6,14.5-14.8,23.1c-1.2,8.6,0.7,17.3,3.4,25.6c1.7,5.2,1.9,12.6,6.6,15.3c5,2.8,14.6-2.4,20.2-3.5   c3.1-0.6,6.3-1.3,8.8-3.2s4.1-5.5,2.7-8.3c-0.8-1.6-2.3-2.7-3.5-4c-5.2-5.5-4.4-15,0.6-20.7c2.5-2.8,5.7-4.9,9.3-6.1   c8.9,2.9,23.2,6.5,23.2,6.5l63.6-6l22.6-7l-3.8-2.2L333.3,319.2z"/>
        <path class="st3" d="M302.5,0"/>
        <g>
		<path class="st1" d="M218.8,443c-1,0.7-3.8,0.8-5.1-1.8c-0.9-1.8-0.7-5.1,0.6-6.4c1.4-1.4,2.9-0.9,4.2-0.5    c0.9,0.3,1.6,1.4,1.9,2.6C221,438.8,220.1,442,218.8,443z"/>
            <path class="st4" d="M218.5,434.3c-2.4-5.7-3-11-1.8-13.5"/>
            <path class="st1" d="M327,460.1c1-4.7,7.4-7.3,11.3-4.5c4,2.7,3.8,9.6-0.2,12.2c-3.4,2.2-8,1.2-10.1-2.3c-1.2-1.9-1.5-4.3-0.7-6.5    c-0.2,0-0.2,0-0.2,0c0.1,0,0.1,0,0.2,0c0.1-0.2,0-0.2-0.1-0.2"/>
            <path class="st1" d="M302.5,0"/>
            <path class="st1" d="M280.7,476.1c-2.1,2.8-5.9,3.8-9,2.3c-2.9-1.4-4.2-4.7-3.8-7.8c0.3-2.2,1.5-4.2,3.2-5.5    c3.8-2,8.4-0.5,10.4,3.2C282.5,470.5,282.1,473.5,280.7,476.1z"/>
            <path class="st1" d="M302.5,0"/>
            <path class="st1" d="M357.9,346c-3.1,13.7-8.8,38-12.3,49.6c-0.2,0.5-2.8,1.4-6.8,2.3v0c-16,3.9-54.4,10.1-54.4,10.1    c-0.9-8.3-0.1-18.2,0.7-28c0.7-9.3,0.9-18.6,0.5-27.8c-0.1-1.8-0.2-3.4-0.4-4.9c4.6-1.2,9-2.2,13.5-3c16.3-3,31.9-4,47.6-8    C363.6,332.8,361.3,327.9,357.9,346z"/>
            <path class="st1" d="M302.5,0"/>
            <path class="st4" d="M228.8,332c-1.4,4.5-2.4,9.2-3,13.9l-0.6,5.7c-0.7,8.3-0.7,16.7-0.7,24.5"/>
            <line class="st4" x1="285.8" y1="360.9" x2="218" y2="338.1"/>
            <line class="st4" x1="285.2" y1="378.5" x2="216.5" y2="350.7"/>
            <line class="st4" x1="215.6" y1="362.9" x2="284.1" y2="395.6"/>
            <path class="st4" d="M302.5,0"/>
	</g>
        <g>
		<path class="st5" d="M387,390c-6.2,1.3-21.2-7.6-28-12.9c2.1-3,1.1-7.7,0.5-8.6c-0.6-1.1-2.5-4.4-5.1-4.2c0.2-4.1,0.8-8.1,1.5-9.8    c8.5-2.1,21.3-4.8,29.1-4.5c4.8,0.2,1.1,6.8,1.1,10c0,6.2,3,11.2,4.8,16.9C392.5,381.8,392.4,388.8,387,390z"/>
            <path class="st6" d="M383,363.6c3.4-0.5,7.4-0.8,10.8,2.7 M385,368.9c2.6-1,5.8,0.6,6.8,2.8"/>
            <path class="st7" d="M359,377.1c-1.2-0.8-2.3-1.8-3.3-3c-1.2-1.7-1.4-6.7-1.3-10.7c2.6-0.2,6.4,2.9,6.9,5.2    C361.9,370.8,361.2,374.2,359,377.1z"/>
	</g>
        <g>
		<path class="st8" d="M266,410.4c-2.9,0.7-6.3,2.5-7.8,5c-1.6,2.6-2.1,5.8-1.4,8.7c-0.3,0.2-0.6,0.3-0.9,0.5    c-7.4,3.9-14.7,7.8-22.1,11.7c-2.1,1.1-4.3,2.2-6.6,1.8c-3.3-0.6-6-4.6-4.9-7.7c3.9-10.9,12.2-25.3,13.8-34.5    c0.4-2.1,2.9-3.1,5-3.3c2.1-0.2,4.2,0.4,6.2,0.9c5,1.4,15.8,3.1,17.9,8.6C266.1,404.4,266.3,407.4,266,410.4z"/>
            <path class="st9" d="M224.1,416.5c3.5-0.6,5.1-0.5,8.5,1.3 M226.6,412.6c3.5-0.6,5.1-0.5,8.5,1.3"/>
            <path class="st1" d="M262.7,419.8c-1.6,1.9-3.7,3.2-5.9,4.4c-2-2.8-2.6-7.7-0.6-10.3c1.8-2.3,6.5-3.8,9.8-3.5    C265.6,414.1,264.5,417.7,262.7,419.8z"/>
	</g>
        <g>
		<path class="st1" d="M135.2,435.3c-15.4,0-18.8-13-18.8-13C126.5,425.4,129.2,426.6,135.2,435.3z"/>
            <path class="st1" d="M143,451.6c-6.3,3.1-14.3-0.4-17.6-6.6c-2.3-4.3,0.4-7.2,1.3-7.7c2.4-1.6,5.7-1.2,8.5-2    c3.1-5.9,7.5-5.4,10.5-3.9c1,0.5,1.8,1.3,2.4,2.3C151.8,439.6,149.3,448.5,143,451.6z"/>
            <path class="st4" d="M135.2,435.3c0.4-2.6,0.3-7.4,4.3-8.5 M141.1,439.7c-0.3,2.7,3.6,3.1,4.1,0.5c0.4-1.7-0.4-4-2.2-3.9"/>
	</g>
        <g>
		<path class="st4" d="M354.4,456.1c2.1,1.8,6.4,1.8,8.8,0.5c2.4-1.3,4.5-3.1,7.1-3.9c4.9-1.4,10.5,1.4,15.2-0.6    c3-1.3,5.1-4.4,8.3-4.8c2.7,5.6,5.5,11.2,8.2,16.9c-2.1-0.4-4.3-0.8-6.4-0.5c-3.8,0.5-7.3,3.2-11.1,2.7c-4.8-0.6-6.8-6.5-12-2.9    c-2.4,1.7-3.5,4.7-4.4,7.5c-2.3-1-3.2-3.8-4.9-5.7c-1.3-1.4-3-2.4-4.5-3.7C356.9,460,355.7,458.1,354.4,456.1 M373.5,459.6    c3.8,0,5.7,4.1,5.7,4.1"/>
	</g>
        <g>
		<path class="st1" d="M390.1,306.4c-3-3.5-6.8-6.4-11-8.4c-4.8-2.3-20.9-8.2-41.3,8.7c-5.3,4.4-10.7,8.5-15.5,13.3    c-3.6-3.3-13.9-10.6-27.8-9.3c-12.5,1.2-19.8,8.6-23.9,12.8c0.2,0,0.3,0.1,0.5,0.1c-7-1.1-14.1-0.7-19.8,1.1    c-21.1,7.1-26.4,25.8-23.6,45.4c0.9,5.2-1.4,24.8,2.4,29.7c2.8,3.6,5.1,3.1,10.5,3.8c8.1,1,18.6,5.2,26.9,4.5    c0.7-0.1,3.5-0.6,4.6-2.7c3.1-6.1-4.6-12.4-5.9-19.3c-1.7-5.9,5.5-7.3,7.4-11.4c1.5-4.3-3.8-7.8-4.3-12.3c0.2-5.2,2.7-7.6,6.1-7.6    c5.3-0.1,8.7-6.8,8.7-6.8c0.7-0.5,1.5-0.8,2.4-1c4.1-1,8.1-1.9,12-2.6c0,0,0,0,0,0c0,0,0,0,0.1,0c0,0,0,0,0.1,0    c15.4-2.4,35.3-4.9,47.6-8c8-2.1,13.5-3.4,13.9-3.4c0.5,0-0.6,5.4-2.3,13.1c-0.7,3.4-1.6,7.2-2.5,11.1c6.3,1.7,15.9-2.3,21.1-2.9    c3.7-0.4,12,4,15.3,2.7c1.9-0.7,3.9-4.4,4.1-5c4.4-12.4,3.9-26-1.2-38"/>
            <path class="st9" d="M228.8,367.4c20,2.7,34.9-26.4,18.6-39.4 M241.7,402.1c3.7-9.5,22.9-6.8,20.9,4.3"/>
            <path class="st4" d="M317.1,325.2c1.7-1.7,3.4-3.5,5.1-5.2"/>
            <path class="st9" d="M330.5,315.2c3.8,3.5,14.3,3,19.8-0.3c4.9-2.9,8.7-9.7,7.6-16.8 M395.5,322.7c-7,1.1-10.1,8.5-9.9,12.8    c0.2,6.7,5.5,11.6,9.7,11.9"/>
            <path class="st1" d="M290.5,331.9c-5.3-4.4-12.3-7.1-19.5-8.3"/>
	</g>
        <g>
		<path class="st8" d="M217,267.7c-2.4-1.8-5.5-2.7-7.9-4.5c-1.8-1.3-3.3-3.1-5.2-4.3c-4.2-2.5-10.6-1.4-12.7,3.8    c-1.1,2.8-0.7,5.9,1.1,8.3c1.3,1.7,2.9,3.2,4.3,4.9c2.3,2.9,3.5,7.8-0.8,9.7c-0.9,0.4-1.6,1.1-1.9,2.1c-1,3.1,3.4,3.6,4.3,6    c-1.3,0.3-2.9,1.2-2.5,2.4c0.2,0.5,0.7,0.8,1,1.2c0.3,0.3,0.4,0.8,0.4,1.2c0.1,1.8,1.6,3.3,3.4,3.4c1.7,0.1,3.5,0,5.1,0.5    c4.2,1.2,6.6,6.5,11.9,5.2c2.2-0.6,4.1-2.2,5.2-4.2c2.2-4.3,1.3-9.1,0.5-13.6C222.2,284.4,222.1,271.1,217,267.7z"/>
            <path class="st10" d="M212.6,276.9l9.4-1.2c1.9-0.3,3.9-0.4,5.8-0.4c5.8,0.4,11.1,3.8,13.8,9c0.6,1.1,0.9,2.2,1.1,3.5    c0.3,3.6-3.4,7.3-6.7,6.8c3.6,0.4,5.9-3.5,5.9-3.5c1.5,1,6.6,3.9,5.7,7c-0.3,1.1-1.3,2-2.2,2.7c-3.8,2.9-9.1,4.8-13.3,2.5    c-1.3-0.7-2.3-1.7-3.7-2.2c-1.3-0.5-2.6-0.7-4-0.6c-3.9-0.1-5.3-0.2-9.2,0.3c-2.8-3.1-4.8-6.9-5.9-10.9c-0.7-2.7,1.4-5.4,2.1-7.5    C212.1,280.6,212.5,278.8,212.6,276.9z"/>
            <path class="st4" d="M208.7,291.8c-0.6-1.3,0.2-4,0.6-5.4c0.5-1.7,1.7-3,2.3-4.7c0.5-1.3,0.6-3.4,0.7-4.8c0.2-2.2-1.1-6.2-6.1-8.4    c0.6,0.1,6.7,3.4,6.1,8.4c0.9-0.1,6.4-0.8,9.5-1.2c1.9-0.3,3.9-0.4,5.8-0.4c5.8,0.4,11.1,3.8,13.8,9c0.6,1.1,0.9,2.2,1.1,3.5    c0.3,3.6-3.4,7.3-6.7,6.8c3.6,0.4,5.9-3.5,5.9-3.5c1.5,1,6.6,3.9,5.7,7c-0.3,1.1-1.3,2-2.2,2.7c-3.8,2.9-9.1,4.8-13.3,2.5    c-1.3-0.7-2.3-1.7-3.7-2.2c-1.3-0.5-2.6-0.7-4-0.6c-3.9-0.1-7.9,0.1-11.8,0.7"/>
	</g>
        <g>
		<path class="st10" d="M255.2,153.2c4.4-0.9,9.6-1.1,14-0.2c4.4,1,9,5.5,9.5,10c8-13.4,24.5-17.1,40-18    c17.8-1.1,44.1,11.7,47.6,25.3c1.1,4.3,0,9.5-3.9,11.7c7.6,0,11.5,3,15.6,9.3c4.1,6.4,2.5,16.1-2.9,21.4    c-3.3,3.2-7.1,6.2-11.6,7.4c-7.6,1.9-11.5,2.2-19.5,2.7l-5.9,0.2c-4.9,0-9.8-0.6-14.5-1.9c-5.5-1.5-6.2-4.9-11.3-13.3    c2,3.9,5.3,13.8,5.1,18.1c-0.5,8.3-7.6,19.5-22.9,24.1c-10.6,3.2-29.5-1.2-35.8-7.8c-7.8-8.3-9.5-18.9-10.5-24.3    c-2.1,1.6-4.8,3.5-7.7,5.4c-3.3,2.3-7.1-2.1-4.3-5c2.4-2.6,5.2-5.2,9.3-8.8c-8-10.2-12.3-23.7-9.8-37.5c1.6-8.8,8.2-14.3,14.1-17    L255.2,153.2z"/>
            <path class="st10" d="M302.5,0"/>
            <path class="st10" d="M302.5,0"/>
	</g>
        <g>
		<path class="st10" d="M302.5,0"/>
	</g>
        <g>
		<path class="st1" d="M316.7,185.1c0,0.1,0,0.2-0.1,0.3c-1.5,3.7-26.3,4.6-36.3,3.9c4.4-3.2,18.3-15.2,21.2-16.9    c0.9-0.6,1.9-0.9,3-1l0,0c2-0.1,3.9,0.4,5.5,1.6c1.3,0.9,2.4,1.9,3.3,3.1c1.2,1.5,2.2,3.2,2.8,5.1c0.4,1,0.6,2.1,0.6,3.3    C316.8,184.6,316.7,184.8,316.7,185.1z"/>
            <path class="st1" d="M317.1,201.6c-3.1,0.3-11.2,0.3-14.9,0.4c-6.6,0.2-13.7,1.8-20.3,2.7c0.5-4.8,0.3-10.9-1.5-15.3    c10.2,0.7,36-0.3,36.4-4.2C316.7,184.8,319.5,192.2,317.1,201.6z"/>
            <path class="st4" d="M310.1,172.9c-1.6-1.1-3.5-1.7-5.5-1.6c0.5-1.4,2.8-3.1,4.2-2.4C310,169.5,310.5,171.6,310.1,172.9z"/>
            <path class="st4" d="M302.5,0"/>
            <path class="st1" d="M319.2,184.5c-0.7,0.4-1.6,0.4-2.6,0.9c0-0.1,0.1-0.2,0.1-0.3c0-0.2,0-0.5,0-0.7c0-1.1-0.2-2.2-0.6-3.3    l2.8,1.2c0.6,0.2,1,0.8,0.8,1.5C319.7,184,319.5,184.3,319.2,184.5z"/>
            <path class="st4" d="M281.9,196.8c4.8,1.7,11.2-0.8,16.3-1.4c7.1-0.9,12.8-1.2,19.9-0.6"/>
            <path class="st11" d="M303.1,183.2c-1.6,1.8-4.3,2.2-6.4,0.8c-1.9-1.4-2.2-3.7,0.2-4.9c1.7-0.9,3.2,0.4,3.5,2.3    c0.5-0.6,1.4-2.2,2.2-1.8c0.8,0.3,1.3,1.1,1.2,2C303.7,182.2,303.5,182.8,303.1,183.2z"/>
            <path class="st4" d="M294.2,167.3c4.6,2.2,7.4,9.2,6.2,14.2"/>
	</g>
</g>
</svg>