<svg id="Groupe_16409" data-name="Groupe 16409" xmlns="http://www.w3.org/2000/svg" width="208" height="208" viewBox="0 0 208 208">
  <rect id="Rectangle_225" data-name="Rectangle 225" width="208" height="208" fill="#202124"/>
  <g id="elements" transform="translate(7.716 7.716)">
    <path id="Tracé_3257" data-name="Tracé 3257" d="M10,10h7.716v7.716H10Zm7.716,0h7.716v7.716H17.716Zm7.716,0h7.716v7.716H25.432Zm7.716,0h7.716v7.716H33.148Zm7.716,0H48.58v7.716H40.864Zm7.716,0H56.3v7.716H48.58ZM56.3,10h7.716v7.716H56.3Zm23.148,0H87.16v7.716H79.444Zm54.012,0h7.716v7.716h-7.716Zm15.432,0H156.6v7.716h-7.716Zm7.716,0h7.716v7.716H156.6Zm7.716,0h7.716v7.716h-7.716Zm7.716,0h7.716v7.716h-7.716Zm7.716,0h7.716v7.716h-7.716Zm7.716,0h7.716v7.716h-7.716Zm7.716,0H202.9v7.716h-7.716ZM10,17.716h7.716v7.716H10Zm46.3,0h7.716v7.716H56.3Zm15.432,0h7.716v7.716H71.728Zm7.716,0H87.16v7.716H79.444Zm15.432,0h7.716v7.716H94.877Zm7.716,0h7.716v7.716h-7.716Zm23.148,0h7.716v7.716h-7.716Zm23.148,0H156.6v7.716h-7.716Zm46.3,0H202.9v7.716h-7.716ZM10,25.432h7.716v7.716H10Zm15.432,0h7.716v7.716H25.432Zm7.716,0h7.716v7.716H33.148Zm7.716,0H48.58v7.716H40.864Zm15.432,0h7.716v7.716H56.3Zm23.148,0H87.16v7.716H79.444Zm7.716,0h7.716v7.716H87.16Zm7.716,0h7.716v7.716H94.877Zm23.148,0h7.716v7.716h-7.716Zm15.432,0h7.716v7.716h-7.716Zm15.432,0H156.6v7.716h-7.716Zm15.432,0h7.716v7.716h-7.716Zm7.716,0h7.716v7.716h-7.716Zm7.716,0h7.716v7.716h-7.716Zm15.432,0H202.9v7.716h-7.716ZM10,33.148h7.716v7.716H10Zm15.432,0h7.716v7.716H25.432Zm7.716,0h7.716v7.716H33.148Zm7.716,0H48.58v7.716H40.864Zm15.432,0h7.716v7.716H56.3Zm15.432,0h7.716v7.716H71.728Zm7.716,0H87.16v7.716H79.444Zm15.432,0h7.716v7.716H94.877Zm15.432,0h7.716v7.716h-7.716Zm7.716,0h7.716v7.716h-7.716Zm30.864,0H156.6v7.716h-7.716Zm15.432,0h7.716v7.716h-7.716Zm7.716,0h7.716v7.716h-7.716Zm7.716,0h7.716v7.716h-7.716Zm15.432,0H202.9v7.716h-7.716ZM10,40.864h7.716V48.58H10Zm15.432,0h7.716V48.58H25.432Zm7.716,0h7.716V48.58H33.148Zm7.716,0H48.58V48.58H40.864Zm15.432,0h7.716V48.58H56.3Zm30.864,0h7.716V48.58H87.16Zm15.432,0h7.716V48.58h-7.716Zm15.432,0h7.716V48.58h-7.716Zm15.432,0h7.716V48.58h-7.716Zm15.432,0H156.6V48.58h-7.716Zm15.432,0h7.716V48.58h-7.716Zm7.716,0h7.716V48.58h-7.716Zm7.716,0h7.716V48.58h-7.716Zm15.432,0H202.9V48.58h-7.716ZM10,48.58h7.716V56.3H10Zm46.3,0h7.716V56.3H56.3Zm15.432,0h7.716V56.3H71.728Zm15.432,0h7.716V56.3H87.16Zm23.148,0h7.716V56.3h-7.716Zm15.432,0h7.716V56.3h-7.716Zm7.716,0h7.716V56.3h-7.716Zm15.432,0H156.6V56.3h-7.716Zm46.3,0H202.9V56.3h-7.716ZM10,56.3h7.716v7.716H10Zm7.716,0h7.716v7.716H17.716Zm7.716,0h7.716v7.716H25.432Zm7.716,0h7.716v7.716H33.148Zm7.716,0H48.58v7.716H40.864Zm7.716,0H56.3v7.716H48.58Zm7.716,0h7.716v7.716H56.3Zm15.432,0h7.716v7.716H71.728Zm15.432,0h7.716v7.716H87.16Zm15.432,0h7.716v7.716h-7.716Zm15.432,0h7.716v7.716h-7.716Zm15.432,0h7.716v7.716h-7.716Zm15.432,0H156.6v7.716h-7.716Zm7.716,0h7.716v7.716H156.6Zm7.716,0h7.716v7.716h-7.716Zm7.716,0h7.716v7.716h-7.716Zm7.716,0h7.716v7.716h-7.716Zm7.716,0h7.716v7.716h-7.716Zm7.716,0H202.9v7.716h-7.716Zm-92.593,7.716h7.716v7.716h-7.716Zm30.864,0h7.716v7.716h-7.716ZM10,71.728h7.716v7.716H10Zm7.716,0h7.716v7.716H17.716Zm7.716,0h7.716v7.716H25.432Zm7.716,0h7.716v7.716H33.148Zm7.716,0H48.58v7.716H40.864Zm15.432,0h7.716v7.716H56.3Zm7.716,0h7.716v7.716H64.012Zm7.716,0h7.716v7.716H71.728Zm7.716,0H87.16v7.716H79.444Zm7.716,0h7.716v7.716H87.16Zm15.432,0h7.716v7.716h-7.716Zm7.716,0h7.716v7.716h-7.716Zm7.716,0h7.716v7.716h-7.716Zm23.148,0h7.716v7.716h-7.716Zm15.432,0h7.716v7.716H156.6Zm15.432,0h7.716v7.716h-7.716Zm15.432,0h7.716v7.716h-7.716ZM10,79.444h7.716V87.16H10Zm7.716,0h7.716V87.16H17.716Zm7.716,0h7.716V87.16H25.432Zm15.432,0H48.58V87.16H40.864Zm23.148,0h7.716V87.16H64.012Zm15.432,0H87.16V87.16H79.444Zm54.012,0h7.716V87.16h-7.716Zm23.148,0h7.716V87.16H156.6Zm15.432,0h7.716V87.16h-7.716Zm15.432,0h7.716V87.16h-7.716ZM25.432,87.16h7.716v7.716H25.432Zm7.716,0h7.716v7.716H33.148Zm7.716,0H48.58v7.716H40.864Zm15.432,0h7.716v7.716H56.3Zm7.716,0h7.716v7.716H64.012Zm7.716,0h7.716v7.716H71.728Zm7.716,0H87.16v7.716H79.444Zm15.432,0h7.716v7.716H94.877Zm7.716,0h7.716v7.716h-7.716Zm23.148,0h7.716v7.716h-7.716Zm23.148,0H156.6v7.716h-7.716Zm30.864,0h7.716v7.716h-7.716Zm7.716,0h7.716v7.716h-7.716Zm7.716,0H202.9v7.716h-7.716ZM17.716,94.877h7.716v7.716H17.716Zm7.716,0h7.716v7.716H25.432Zm7.716,0h7.716v7.716H33.148Zm30.864,0h7.716v7.716H64.012Zm15.432,0H87.16v7.716H79.444Zm7.716,0h7.716v7.716H87.16Zm7.716,0h7.716v7.716H94.877Zm23.148,0h7.716v7.716h-7.716Zm23.148,0h7.716v7.716h-7.716Zm7.716,0H156.6v7.716h-7.716Zm7.716,0h7.716v7.716H156.6Zm7.716,0h7.716v7.716h-7.716Zm23.148,0h7.716v7.716h-7.716Zm7.716,0H202.9v7.716h-7.716ZM10,102.593h7.716v7.716H10Zm15.432,0h7.716v7.716H25.432Zm15.432,0H48.58v7.716H40.864Zm15.432,0h7.716v7.716H56.3Zm7.716,0h7.716v7.716H64.012Zm15.432,0H87.16v7.716H79.444Zm15.432,0h7.716v7.716H94.877Zm30.864,0h7.716v7.716h-7.716Zm23.148,0H156.6v7.716h-7.716Zm15.432,0h7.716v7.716h-7.716Zm15.432,0h7.716v7.716h-7.716Zm15.432,0H202.9v7.716h-7.716ZM10,110.309h7.716v7.716H10Zm15.432,0h7.716v7.716H25.432Zm23.148,0H56.3v7.716H48.58Zm15.432,0h7.716v7.716H64.012Zm7.716,0h7.716v7.716H71.728Zm15.432,0h7.716v7.716H87.16Zm15.432,0h7.716v7.716h-7.716Zm7.716,0h7.716v7.716h-7.716Zm23.148,0h7.716v7.716h-7.716Zm23.148,0h7.716v7.716H156.6ZM10,118.025h7.716v7.716H10Zm23.148,0h7.716v7.716H33.148Zm7.716,0H48.58v7.716H40.864Zm15.432,0h7.716v7.716H56.3Zm15.432,0h7.716v7.716H71.728Zm15.432,0h7.716v7.716H87.16Zm23.148,0h7.716v7.716h-7.716Zm7.716,0h7.716v7.716h-7.716Zm7.716,0h7.716v7.716h-7.716Zm23.148,0H156.6v7.716h-7.716Zm23.148,0h7.716v7.716h-7.716Zm15.432,0h7.716v7.716h-7.716Zm7.716,0H202.9v7.716h-7.716ZM10,125.741h7.716v7.716H10Zm15.432,0h7.716v7.716H25.432Zm7.716,0h7.716v7.716H33.148Zm7.716,0H48.58v7.716H40.864Zm23.148,0h7.716v7.716H64.012Zm7.716,0h7.716v7.716H71.728Zm7.716,0H87.16v7.716H79.444Zm23.148,0h7.716v7.716h-7.716Zm7.716,0h7.716v7.716h-7.716Zm38.58,0H156.6v7.716h-7.716Zm46.3,0H202.9v7.716h-7.716ZM10,133.457h7.716v7.716H10Zm15.432,0h7.716v7.716H25.432Zm7.716,0h7.716v7.716H33.148Zm7.716,0H48.58v7.716H40.864Zm15.432,0h7.716v7.716H56.3Zm7.716,0h7.716v7.716H64.012Zm23.148,0h7.716v7.716H87.16Zm15.432,0h7.716v7.716h-7.716Zm15.432,0h7.716v7.716h-7.716Zm7.716,0h7.716v7.716h-7.716Zm7.716,0h7.716v7.716h-7.716Zm7.716,0h7.716v7.716h-7.716Zm7.716,0H156.6v7.716h-7.716Zm7.716,0h7.716v7.716H156.6Zm7.716,0h7.716v7.716h-7.716Zm7.716,0h7.716v7.716h-7.716Zm7.716,0h7.716v7.716h-7.716Zm15.432,0H202.9v7.716h-7.716ZM71.728,141.173h7.716v7.716H71.728Zm15.432,0h7.716v7.716H87.16Zm46.3,0h7.716v7.716h-7.716Zm30.864,0h7.716v7.716h-7.716Zm7.716,0h7.716v7.716h-7.716Zm15.432,0h7.716v7.716h-7.716Zm7.716,0H202.9v7.716h-7.716ZM10,148.889h7.716V156.6H10Zm7.716,0h7.716V156.6H17.716Zm7.716,0h7.716V156.6H25.432Zm7.716,0h7.716V156.6H33.148Zm7.716,0H48.58V156.6H40.864Zm7.716,0H56.3V156.6H48.58Zm7.716,0h7.716V156.6H56.3Zm15.432,0h7.716V156.6H71.728Zm7.716,0H87.16V156.6H79.444Zm15.432,0h7.716V156.6H94.877Zm7.716,0h7.716V156.6h-7.716Zm30.864,0h7.716V156.6h-7.716Zm15.432,0H156.6V156.6h-7.716Zm15.432,0h7.716V156.6h-7.716Zm23.148,0h7.716V156.6h-7.716Zm7.716,0H202.9V156.6h-7.716ZM10,156.6h7.716v7.716H10Zm46.3,0h7.716v7.716H56.3Zm23.148,0H87.16v7.716H79.444Zm15.432,0h7.716v7.716H94.877Zm23.148,0h7.716v7.716h-7.716Zm15.432,0h7.716v7.716h-7.716Zm30.864,0h7.716v7.716h-7.716Zm7.716,0h7.716v7.716h-7.716Zm23.148,0H202.9v7.716h-7.716ZM10,164.321h7.716v7.716H10Zm15.432,0h7.716v7.716H25.432Zm7.716,0h7.716v7.716H33.148Zm7.716,0H48.58v7.716H40.864Zm15.432,0h7.716v7.716H56.3Zm15.432,0h7.716v7.716H71.728Zm23.148,0h7.716v7.716H94.877Zm30.864,0h7.716v7.716h-7.716Zm7.716,0h7.716v7.716h-7.716Zm7.716,0h7.716v7.716h-7.716Zm7.716,0H156.6v7.716h-7.716Zm7.716,0h7.716v7.716H156.6Zm7.716,0h7.716v7.716h-7.716Zm7.716,0h7.716v7.716h-7.716Zm7.716,0h7.716v7.716h-7.716Zm7.716,0h7.716v7.716h-7.716Zm7.716,0H202.9v7.716h-7.716ZM10,172.037h7.716v7.716H10Zm15.432,0h7.716v7.716H25.432Zm7.716,0h7.716v7.716H33.148Zm7.716,0H48.58v7.716H40.864Zm15.432,0h7.716v7.716H56.3Zm15.432,0h7.716v7.716H71.728Zm7.716,0H87.16v7.716H79.444Zm23.148,0h7.716v7.716h-7.716Zm7.716,0h7.716v7.716h-7.716Zm7.716,0h7.716v7.716h-7.716Zm23.148,0h7.716v7.716h-7.716Zm7.716,0H156.6v7.716h-7.716Zm15.432,0h7.716v7.716h-7.716Zm7.716,0h7.716v7.716h-7.716Zm15.432,0h7.716v7.716h-7.716Zm7.716,0H202.9v7.716h-7.716ZM10,179.753h7.716v7.716H10Zm15.432,0h7.716v7.716H25.432Zm7.716,0h7.716v7.716H33.148Zm7.716,0H48.58v7.716H40.864Zm15.432,0h7.716v7.716H56.3Zm15.432,0h7.716v7.716H71.728Zm38.58,0h7.716v7.716h-7.716Zm7.716,0h7.716v7.716h-7.716Zm7.716,0h7.716v7.716h-7.716Zm46.3,0h7.716v7.716h-7.716Zm23.148,0H202.9v7.716h-7.716ZM10,187.469h7.716v7.716H10Zm46.3,0h7.716v7.716H56.3Zm15.432,0h7.716v7.716H71.728Zm7.716,0H87.16v7.716H79.444Zm7.716,0h7.716v7.716H87.16Zm15.432,0h7.716v7.716h-7.716Zm7.716,0h7.716v7.716h-7.716Zm15.432,0h7.716v7.716h-7.716Zm7.716,0h7.716v7.716h-7.716Zm15.432,0H156.6v7.716h-7.716Zm7.716,0h7.716v7.716H156.6Zm38.58,0H202.9v7.716h-7.716ZM10,195.185h7.716V202.9H10Zm7.716,0h7.716V202.9H17.716Zm7.716,0h7.716V202.9H25.432Zm7.716,0h7.716V202.9H33.148Zm7.716,0H48.58V202.9H40.864Zm7.716,0H56.3V202.9H48.58Zm7.716,0h7.716V202.9H56.3Zm15.432,0h7.716V202.9H71.728Zm15.432,0h7.716V202.9H87.16Zm15.432,0h7.716V202.9h-7.716Zm15.432,0h7.716V202.9h-7.716Zm23.148,0h7.716V202.9h-7.716Zm30.864,0h7.716V202.9h-7.716Zm7.716,0h7.716V202.9h-7.716Zm7.716,0h7.716V202.9h-7.716Zm7.716,0H202.9V202.9h-7.716Z" transform="translate(-10 -10)" fill="#fffffe"/>
  </g>
</svg>
