<svg xmlns="http://www.w3.org/2000/svg" width="229" height="137.903" viewBox="0 0 229 137.903">
  <g id="Groupe_16373" data-name="Groupe 16373" transform="translate(-83 -222.55)">
    <g id="Groupe_16372" data-name="Groupe 16372">
      <g id="Groupe_16129" data-name="Groupe 16129" transform="translate(294.81 267.105)">
        <g id="Groupe_16128" data-name="Groupe 16128">
          <rect id="Rectangle_133" data-name="Rectangle 133" width="17.19" height="4.547" fill="#ebebeb"/>
        </g>
      </g>
      <g id="Groupe_16132" data-name="Groupe 16132" transform="translate(287.454 271.799)">
        <g id="Groupe_16131" data-name="Groupe 16131">
          <g id="Groupe_16130" data-name="Groupe 16130">
            <path id="Tracé_3126" data-name="Tracé 3126" d="M440.61,147.1a.562.562,0,0,1-.005-.082c0-.061,0-.138-.006-.233q0-.321-.013-.9c-.007-.785-.017-1.914-.029-3.337l.053.053-17.188.035c.039-.039-.088.087.086-.088h0v1.162q0,.578,0,1.148,0,1.138,0,2.236l-.086-.085,12.25.039,3.616.024.978.012.256.005a.736.736,0,0,1,.09.006.34.34,0,0,1-.08.006l-.245.006-.959.011-3.6.024-12.309.039h-.086V147.1q0-1.1,0-2.236,0-.569,0-1.148v-1.162h0c.175-.175.049-.048.089-.088l17.188.035h.054v.053c-.013,1.437-.022,2.576-.029,3.368l-.013.883-.006.224A.313.313,0,0,1,440.61,147.1Z" transform="translate(-423.333 -142.46)" fill="#e0e0e0"/>
          </g>
        </g>
      </g>
      <g id="Groupe_16247" data-name="Groupe 16247" transform="translate(270.67 296.593)">
        <g id="Groupe_16135" data-name="Groupe 16135" transform="translate(1.155 32.908)">
          <g id="Groupe_16134" data-name="Groupe 16134">
            <path id="Tracé_3127" data-name="Tracé 3127" d="M399.316,257.736a10.409,10.409,0,0,0-4.454-1.533,2.967,2.967,0,0,0-2.107.387.432.432,0,0,0-.217.385.467.467,0,0,0,.206.263,6.368,6.368,0,0,0,6.573.5" transform="translate(-392.533 -256.169)" fill="#dfe7d6"/>
          </g>
        </g>
        <g id="Groupe_16137" data-name="Groupe 16137" transform="translate(3.089 27.364)">
          <g id="Groupe_16136" data-name="Groupe 16136">
            <path id="Tracé_3128" data-name="Tracé 3128" d="M401.079,252.229A21.764,21.764,0,0,1,398.2,249.7a7.281,7.281,0,0,1-1.8-3.336,1.348,1.348,0,0,1,.143-1.116,11.194,11.194,0,0,1,4.539,6.984" transform="translate(-396.344 -245.245)" fill="#dfe7d6"/>
          </g>
        </g>
        <g id="Groupe_16139" data-name="Groupe 16139" transform="translate(7.768 27.562)">
          <g id="Groupe_16138" data-name="Groupe 16138">
            <path id="Tracé_3129" data-name="Tracé 3129" d="M405.71,252.53a10.417,10.417,0,0,1,.053-3.777,5.106,5.106,0,0,1,2.013-3.117,4.461,4.461,0,0,1-.053,2.962,14.381,14.381,0,0,1-2,4.2" transform="translate(-405.564 -245.635)" fill="#dfe7d6"/>
          </g>
        </g>
        <g id="Groupe_16141" data-name="Groupe 16141" transform="translate(4.546 38.486)">
          <g id="Groupe_16140" data-name="Groupe 16140">
            <path id="Tracé_3130" data-name="Tracé 3130" d="M404.832,267.161a6.581,6.581,0,0,0-3.572,1.808,6.757,6.757,0,0,0-2.044,3.508,4.82,4.82,0,0,0,3.3-2.085c.824-1.059,1.394-2.22,2.3-3.21" transform="translate(-399.216 -267.161)" fill="#dfe7d6"/>
          </g>
        </g>
        <g id="Groupe_16143" data-name="Groupe 16143" transform="translate(10.036 30.795)">
          <g id="Groupe_16142" data-name="Groupe 16142">
            <path id="Tracé_3131" data-name="Tracé 3131" d="M410.649,260.341a8.813,8.813,0,0,1,1.017-8.335,10.608,10.608,0,0,1-1.017,8.335" transform="translate(-410.035 -252.006)" fill="#dfe7d6"/>
          </g>
        </g>
        <g id="Groupe_16145" data-name="Groupe 16145" transform="translate(7.437 42.655)">
          <g id="Groupe_16144" data-name="Groupe 16144">
            <path id="Tracé_3132" data-name="Tracé 3132" d="M411.1,275.389A6.372,6.372,0,0,0,405,278.9c-.076.151-.142.343-.041.478a.452.452,0,0,0,.4.119,5.3,5.3,0,0,0,3.143-1.622,30.082,30.082,0,0,1,2.613-2.484" transform="translate(-404.912 -275.378)" fill="#dfe7d6"/>
          </g>
        </g>
        <g id="Groupe_16147" data-name="Groupe 16147" transform="translate(13.016 34.033)">
          <g id="Groupe_16146" data-name="Groupe 16146">
            <path id="Tracé_3133" data-name="Tracé 3133" d="M416.418,266.828a11.343,11.343,0,0,1-.114-6.338,3.091,3.091,0,0,1,1.353-2.058.266.266,0,0,1,.207-.036.272.272,0,0,1,.13.151,3.822,3.822,0,0,1,.319,1.819,11.434,11.434,0,0,1-.285,1.841,9.786,9.786,0,0,1-.981,3.3,6.666,6.666,0,0,0-.392.726c-.117.247-.118.333-.225.529" transform="translate(-415.907 -258.387)" fill="#dfe7d6"/>
          </g>
        </g>
        <g id="Groupe_16149" data-name="Groupe 16149" transform="translate(21.171 36.664)">
          <g id="Groupe_16148" data-name="Groupe 16148">
            <path id="Tracé_3134" data-name="Tracé 3134" d="M432.2,270.553a8.172,8.172,0,0,1,1.433-6.719c.1-.133.239-.277.407-.261.257.024.324.366.313.624a12.138,12.138,0,0,1-2.152,6.356" transform="translate(-431.978 -263.572)" fill="#dfe7d6"/>
          </g>
        </g>
        <g id="Groupe_16151" data-name="Groupe 16151" transform="translate(22.099 41.808)">
          <g id="Groupe_16150" data-name="Groupe 16150">
            <path id="Tracé_3135" data-name="Tracé 3135" d="M433.8,276.03a9.773,9.773,0,0,0,8.02-1.631,6.49,6.49,0,0,0-4.342-.533,6.2,6.2,0,0,0-3.678,2.164" transform="translate(-433.805 -273.707)" fill="#dfe7d6"/>
          </g>
        </g>
        <g id="Groupe_16153" data-name="Groupe 16153" transform="translate(22.697 38.446)">
          <g id="Groupe_16152" data-name="Groupe 16152">
            <path id="Tracé_3136" data-name="Tracé 3136" d="M434.984,271.292a9.268,9.268,0,0,1,7.279-4.209,4.482,4.482,0,0,1-2.381,2.632,13.208,13.208,0,0,1-3.494,1.022,2.462,2.462,0,0,0-1.4.555" transform="translate(-434.984 -267.083)" fill="#dfe7d6"/>
          </g>
        </g>
        <g id="Groupe_16155" data-name="Groupe 16155" transform="translate(20.494 27.016)">
          <g id="Groupe_16154" data-name="Groupe 16154">
            <path id="Tracé_3137" data-name="Tracé 3137" d="M431.689,253.038a21.165,21.165,0,0,0,.931-4.263,7.1,7.1,0,0,0-.849-4.217,9.284,9.284,0,0,0-.124,8.626" transform="translate(-430.643 -244.558)" fill="#dfe7d6"/>
          </g>
        </g>
        <g id="Groupe_16157" data-name="Groupe 16157" transform="translate(26.281 27.379)">
          <g id="Groupe_16156" data-name="Groupe 16156">
            <path id="Tracé_3138" data-name="Tracé 3138" d="M442.048,250.993a11.425,11.425,0,0,1,8.408-5.72,9.367,9.367,0,0,1-8.408,5.72" transform="translate(-442.048 -245.273)" fill="#dfe7d6"/>
          </g>
        </g>
        <g id="Groupe_16159" data-name="Groupe 16159" transform="translate(25.245 33.194)">
          <g id="Groupe_16158" data-name="Groupe 16158">
            <path id="Tracé_3139" data-name="Tracé 3139" d="M440.006,257.224c2.457.375,4.55,1.943,6.845,2.895a3.067,3.067,0,0,0,1.548.3,1.211,1.211,0,0,0,.758-2.142,3.3,3.3,0,0,0-1.124-.682,12.49,12.49,0,0,0-7.815-.435" transform="translate(-440.006 -256.733)" fill="#dfe7d6"/>
          </g>
        </g>
        <g id="Groupe_16161" data-name="Groupe 16161" transform="translate(23.824 35.29)">
          <g id="Groupe_16160" data-name="Groupe 16160">
            <path id="Tracé_3140" data-name="Tracé 3140" d="M437.2,260.981a2.9,2.9,0,0,1,1.186.823,12.811,12.811,0,0,0,5.191,2.666c.2.049.459.069.557-.11.086-.157-.023-.346-.134-.485a7.146,7.146,0,0,0-3.134-2.128,7.993,7.993,0,0,0-3.666-.868" transform="translate(-437.205 -260.863)" fill="#dfe7d6"/>
          </g>
        </g>
        <g id="Groupe_16163" data-name="Groupe 16163" transform="translate(22.22 24.737)">
          <g id="Groupe_16162" data-name="Groupe 16162">
            <path id="Tracé_3141" data-name="Tracé 3141" d="M434.044,240.332a9.822,9.822,0,0,0,7.531,2.563.515.515,0,0,0,.343-.123c.189-.206-.038-.524-.259-.7a8.677,8.677,0,0,0-7.615-1.743" transform="translate(-434.044 -240.066)" fill="#dfe7d6"/>
          </g>
        </g>
        <g id="Groupe_16165" data-name="Groupe 16165" transform="translate(24.122 22.261)">
          <g id="Groupe_16164" data-name="Groupe 16164">
            <path id="Tracé_3142" data-name="Tracé 3142" d="M437.792,237.234a10.5,10.5,0,0,1,9.4-1.551,7.458,7.458,0,0,1-4.478,1.966,14.178,14.178,0,0,1-4.919-.415" transform="translate(-437.792 -235.188)" fill="#dfe7d6"/>
          </g>
        </g>
        <g id="Groupe_16167" data-name="Groupe 16167" transform="translate(22.096 12.878)">
          <g id="Groupe_16166" data-name="Groupe 16166">
            <path id="Tracé_3143" data-name="Tracé 3143" d="M435.07,223.345c-.217-2.21-.076-3.955-.229-6.175-.013-.178-.051-.391-.217-.455-.231-.089-.424.195-.5.431a7.078,7.078,0,0,0,.942,6.15" transform="translate(-433.801 -216.698)" fill="#dfe7d6"/>
          </g>
        </g>
        <g id="Groupe_16169" data-name="Groupe 16169" transform="translate(23.207 12.821)">
          <g id="Groupe_16168" data-name="Groupe 16168">
            <path id="Tracé_3144" data-name="Tracé 3144" d="M435.989,223.534a12.993,12.993,0,0,0,3.661-3.558,4.864,4.864,0,0,0,1.169-3.389,3.5,3.5,0,0,0-2.641,1.311,7.357,7.357,0,0,0-1.346,2.708c-.293.973-.5,1.972-.842,2.927" transform="translate(-435.989 -216.586)" fill="#dfe7d6"/>
          </g>
        </g>
        <g id="Groupe_16171" data-name="Groupe 16171" transform="translate(26.756 13.234)">
          <g id="Groupe_16170" data-name="Groupe 16170">
            <path id="Tracé_3145" data-name="Tracé 3145" d="M443.031,222.935a29.529,29.529,0,0,0,9.01-5.312,4.6,4.6,0,0,0-3.385.26,10.672,10.672,0,0,0-5.672,5.028" transform="translate(-442.984 -217.4)" fill="#dfe7d6"/>
          </g>
        </g>
        <g id="Groupe_16173" data-name="Groupe 16173" transform="translate(24.218 18.372)">
          <g id="Groupe_16172" data-name="Groupe 16172">
            <path id="Tracé_3146" data-name="Tracé 3146" d="M437.982,230.13a18.336,18.336,0,0,0,5,.024,21.226,21.226,0,0,0,4.67-1.552.547.547,0,0,0,.317-.241.365.365,0,0,0-.114-.4.964.964,0,0,0-.4-.186,8.642,8.642,0,0,0-5.047.3,23.383,23.383,0,0,0-4.431,2.053" transform="translate(-437.982 -227.524)" fill="#dfe7d6"/>
          </g>
        </g>
        <g id="Groupe_16175" data-name="Groupe 16175" transform="translate(13.888 17.754)">
          <g id="Groupe_16174" data-name="Groupe 16174">
            <path id="Tracé_3147" data-name="Tracé 3147" d="M418.458,233.63a8.849,8.849,0,0,1-.081-7.324,5.593,5.593,0,0,1,.648,3.641c-.126,1.251-.507,2.539-.532,3.8" transform="translate(-417.624 -226.306)" fill="#dfe7d6"/>
          </g>
        </g>
        <g id="Groupe_16177" data-name="Groupe 16177" transform="translate(2.598 22.79)">
          <g id="Groupe_16176" data-name="Groupe 16176">
            <path id="Tracé_3148" data-name="Tracé 3148" d="M402.966,236.232a10.214,10.214,0,0,0-7.59,3.233,7.1,7.1,0,0,0,4.157-.77,21.159,21.159,0,0,0,3.562-2.385" transform="translate(-395.376 -236.231)" fill="#dfe7d6"/>
          </g>
        </g>
        <g id="Groupe_16179" data-name="Groupe 16179" transform="translate(0 21.639)">
          <g id="Groupe_16178" data-name="Groupe 16178">
            <path id="Tracé_3149" data-name="Tracé 3149" d="M397.4,234.1a10.6,10.6,0,0,0-4.053.124,4.861,4.861,0,0,0-3.088,2.619,7.32,7.32,0,0,0,3.8-.718A21.825,21.825,0,0,0,397.4,234.1" transform="translate(-390.257 -233.962)" fill="#dfe7d6"/>
          </g>
        </g>
        <g id="Groupe_16181" data-name="Groupe 16181" transform="translate(3.528 19.691)">
          <g id="Groupe_16180" data-name="Groupe 16180">
            <path id="Tracé_3150" data-name="Tracé 3150" d="M405.334,232.252a12.785,12.785,0,0,0-3.979-1.987,4.337,4.337,0,0,0-4.146,1.006,7.747,7.747,0,0,0,3.964.77,13.682,13.682,0,0,1,4.317.438" transform="translate(-397.209 -230.124)" fill="#dfe7d6"/>
          </g>
        </g>
        <g id="Groupe_16183" data-name="Groupe 16183" transform="translate(9.241 13.17)">
          <g id="Groupe_16182" data-name="Groupe 16182">
            <path id="Tracé_3151" data-name="Tracé 3151" d="M410.887,225.988a9.251,9.251,0,0,1-2.082-8.715,13.28,13.28,0,0,1,2.082,8.715" transform="translate(-408.468 -217.273)" fill="#dfe7d6"/>
          </g>
        </g>
        <g id="Groupe_16185" data-name="Groupe 16185" transform="translate(17.522 9.077)">
          <g id="Groupe_16184" data-name="Groupe 16184">
            <path id="Tracé_3152" data-name="Tracé 3152" d="M424.786,216.085c.4-.934.685-1.915,1.045-2.867a8.231,8.231,0,0,1,1.49-2.643,3.925,3.925,0,0,1,2.64-1.368,10.632,10.632,0,0,1-5.124,6.893" transform="translate(-424.786 -209.207)" fill="#dfe7d6"/>
          </g>
        </g>
        <g id="Groupe_16187" data-name="Groupe 16187" transform="translate(10.947 13.434)">
          <g id="Groupe_16186" data-name="Groupe 16186">
            <path id="Tracé_3153" data-name="Tracé 3153" d="M417.344,221.549a13.7,13.7,0,0,0-2.336-2.842,3.908,3.908,0,0,0-3.178-.835,7.4,7.4,0,0,0,5.514,3.676" transform="translate(-411.83 -217.793)" fill="#dfe7d6"/>
          </g>
        </g>
        <g id="Groupe_16189" data-name="Groupe 16189" transform="translate(15.545 9.163)">
          <g id="Groupe_16188" data-name="Groupe 16188">
            <path id="Tracé_3154" data-name="Tracé 3154" d="M422.019,216.244a15.8,15.8,0,0,1-1.052-3.4,5.313,5.313,0,0,1,.533-3.463,7.856,7.856,0,0,1,.578,6.893" transform="translate(-420.89 -209.376)" fill="#dfe7d6"/>
          </g>
        </g>
        <g id="Groupe_16191" data-name="Groupe 16191" transform="translate(17.532 4.475)">
          <g id="Groupe_16190" data-name="Groupe 16190">
            <path id="Tracé_3155" data-name="Tracé 3155" d="M424.807,204.826a7.427,7.427,0,0,1,4.838-4.548,1.8,1.8,0,0,1,.848-.127.735.735,0,0,1,.625.522c.079.373-.229.707-.519.955a16.468,16.468,0,0,1-5.793,3.2" transform="translate(-424.807 -200.139)" fill="#dfe7d6"/>
          </g>
        </g>
        <g id="Groupe_16193" data-name="Groupe 16193" transform="translate(17.522)">
          <g id="Groupe_16192" data-name="Groupe 16192">
            <path id="Tracé_3156" data-name="Tracé 3156" d="M424.82,198.69a15.707,15.707,0,0,1,.632-4.187,5.292,5.292,0,0,1,2.635-3.182,6.207,6.207,0,0,1-1.17,4.077,18.674,18.674,0,0,0-2.132,3.759" transform="translate(-424.786 -191.32)" fill="#dfe7d6"/>
          </g>
        </g>
        <g id="Groupe_16195" data-name="Groupe 16195" transform="translate(13.41 0.656)">
          <g id="Groupe_16194" data-name="Groupe 16194">
            <path id="Tracé_3157" data-name="Tracé 3157" d="M420.8,200.3c-.548-1.6-.6-3.627-1.561-5.02-.669-.973-1.74-1.636-2.316-2.667a4.056,4.056,0,0,0,.134,3.027,8.763,8.763,0,0,0,1.77,2.534c.708.756,1.314,1.325,1.973,2.125" transform="translate(-416.684 -192.613)" fill="#dfe7d6"/>
          </g>
        </g>
        <g id="Groupe_16198" data-name="Groupe 16198" transform="translate(17.45 7.786)">
          <g id="Groupe_16197" data-name="Groupe 16197">
            <g id="Groupe_16196" data-name="Groupe 16196">
              <path id="Tracé_3158" data-name="Tracé 3158" d="M424.727,254.277c-.043,0-.08-10.66-.083-23.806s.029-23.808.072-23.808.079,10.658.082,23.808S424.769,254.277,424.727,254.277Z" transform="translate(-424.644 -206.663)" fill="#dfe7d6"/>
            </g>
          </g>
        </g>
        <g id="Groupe_16201" data-name="Groupe 16201" transform="translate(17.519 23.467)">
          <g id="Groupe_16200" data-name="Groupe 16200">
            <g id="Groupe_16199" data-name="Groupe 16199">
              <path id="Tracé_3159" data-name="Tracé 3159" d="M434.109,237.567a2.233,2.233,0,0,1-.4.151l-1.1.372c-.93.317-2.207.776-3.594,1.344a14.581,14.581,0,0,0-3.405,1.706,2.506,2.506,0,0,0-.684.905c-.106.25-.125.4-.139.4s0-.039,0-.112a1.691,1.691,0,0,1,.078-.311,2.4,2.4,0,0,1,.668-.965,5.992,5.992,0,0,1,1.477-.918c.591-.276,1.246-.563,1.942-.849,1.391-.57,2.678-1.014,3.619-1.305.47-.147.854-.255,1.119-.326A2.318,2.318,0,0,1,434.109,237.567Z" transform="translate(-424.78 -237.566)" fill="#dfe7d6"/>
            </g>
          </g>
        </g>
        <g id="Groupe_16204" data-name="Groupe 16204" transform="translate(18.252 15.969)">
          <g id="Groupe_16203" data-name="Groupe 16203">
            <g id="Groupe_16202" data-name="Groupe 16202">
              <path id="Tracé_3160" data-name="Tracé 3160" d="M437.874,222.79a.664.664,0,0,1-.113.12l-.342.321-1.277,1.16-4.25,3.785c-1.659,1.477-3.092,2.887-4.086,3.95-.5.531-.89.97-1.157,1.277l-.309.353a.649.649,0,0,1-.116.117.673.673,0,0,1,.091-.137c.064-.086.158-.213.287-.371.253-.319.634-.771,1.122-1.312a53.7,53.7,0,0,1,4.064-3.992c1.665-1.473,3.18-2.8,4.281-3.751l1.309-1.123.361-.3A.659.659,0,0,1,437.874,222.79Z" transform="translate(-426.224 -222.789)" fill="#dfe7d6"/>
            </g>
          </g>
        </g>
        <g id="Groupe_16207" data-name="Groupe 16207" transform="translate(22.125 19.166)">
          <g id="Groupe_16206" data-name="Groupe 16206">
            <g id="Groupe_16205" data-name="Groupe 16205">
              <path id="Tracé_3161" data-name="Tracé 3161" d="M433.86,232.78c-.044-.019.3-.82.649-1.832s.513-1.866.557-1.859a6.249,6.249,0,0,1-.411,1.909,12.435,12.435,0,0,1-.516,1.281A2.006,2.006,0,0,1,433.86,232.78Z" transform="translate(-433.857 -229.089)" fill="#dfe7d6"/>
            </g>
          </g>
        </g>
        <g id="Groupe_16210" data-name="Groupe 16210" transform="translate(11.363 21.525)">
          <g id="Groupe_16209" data-name="Groupe 16209">
            <g id="Groupe_16208" data-name="Groupe 16208">
              <path id="Tracé_3162" data-name="Tracé 3162" d="M418.829,241.521a1.891,1.891,0,0,1-.256-.3l-.655-.84c-.55-.711-1.311-1.692-2.163-2.767s-1.637-2.038-2.2-2.735l-.669-.829a1.9,1.9,0,0,1-.231-.316,1.872,1.872,0,0,1,.277.278c.171.185.413.457.707.8.589.679,1.387,1.633,2.241,2.709s1.6,2.069,2.13,2.8c.264.364.474.661.616.869A1.926,1.926,0,0,1,418.829,241.521Z" transform="translate(-412.65 -233.737)" fill="#dfe7d6"/>
            </g>
          </g>
        </g>
        <g id="Groupe_16213" data-name="Groupe 16213" transform="translate(14.44 23.464)">
          <g id="Groupe_16212" data-name="Groupe 16212">
            <g id="Groupe_16211" data-name="Groupe 16211">
              <path id="Tracé_3163" data-name="Tracé 3163" d="M419.772,240.781a3.749,3.749,0,0,1-.856-1.6,4.578,4.578,0,0,1-.194-1.615l.068.005c-.03.124-.053.189-.064.187s-.013-.071,0-.2l.068.006a7.352,7.352,0,0,0,.273,1.571A11.9,11.9,0,0,0,419.772,240.781Z" transform="translate(-418.712 -237.559)" fill="#dfe7d6"/>
            </g>
          </g>
        </g>
        <g id="Groupe_16216" data-name="Groupe 16216" transform="translate(8.249 22.715)">
          <g id="Groupe_16215" data-name="Groupe 16215">
            <g id="Groupe_16214" data-name="Groupe 16214">
              <path id="Tracé_3164" data-name="Tracé 3164" d="M411.127,236.737a2.772,2.772,0,0,0-.6-.347,3.991,3.991,0,0,0-1.658-.131,10.23,10.23,0,0,0-1.671.269,5.117,5.117,0,0,1-.687.165,2.382,2.382,0,0,1,.658-.27,7.626,7.626,0,0,1,1.688-.318,3.622,3.622,0,0,1,1.711.184A1.061,1.061,0,0,1,411.127,236.737Z" transform="translate(-406.513 -236.082)" fill="#dfe7d6"/>
            </g>
          </g>
        </g>
        <g id="Groupe_16219" data-name="Groupe 16219" transform="translate(5.754 21.586)">
          <g id="Groupe_16218" data-name="Groupe 16218">
            <g id="Groupe_16217" data-name="Groupe 16217">
              <path id="Tracé_3165" data-name="Tracé 3165" d="M408.08,234.837c-.012.024-.348-.14-.915-.333a9.216,9.216,0,0,0-4.612-.352c-.59.106-.947.216-.956.191a.887.887,0,0,1,.243-.1,5.751,5.751,0,0,1,.691-.194,8.134,8.134,0,0,1,4.671.356,5.728,5.728,0,0,1,.654.3A.893.893,0,0,1,408.08,234.837Z" transform="translate(-401.597 -233.857)" fill="#dfe7d6"/>
            </g>
          </g>
        </g>
        <g id="Groupe_16222" data-name="Groupe 16222" transform="translate(16.331 14.491)">
          <g id="Groupe_16221" data-name="Groupe 16221">
            <g id="Groupe_16220" data-name="Groupe 16220">
              <path id="Tracé_3166" data-name="Tracé 3166" d="M423.63,224.551a37.7,37.7,0,0,1-1.186-4.675,37.747,37.747,0,0,1,1.186,4.675Z" transform="translate(-422.44 -219.876)" fill="#dfe7d6"/>
            </g>
          </g>
        </g>
        <g id="Groupe_16225" data-name="Groupe 16225" transform="translate(15.735 16.652)">
          <g id="Groupe_16224" data-name="Groupe 16224">
            <g id="Groupe_16223" data-name="Groupe 16223">
              <path id="Tracé_3167" data-name="Tracé 3167" d="M423.094,226.649a11.17,11.17,0,0,0-.74-1.388,6.106,6.106,0,0,0-1.089-1.124,1.021,1.021,0,0,1,.42.217,3.4,3.4,0,0,1,.795.819A3.075,3.075,0,0,1,423.094,226.649Z" transform="translate(-421.265 -224.134)" fill="#dfe7d6"/>
            </g>
          </g>
        </g>
        <g id="Groupe_16228" data-name="Groupe 16228" transform="translate(7.767 34.159)">
          <g id="Groupe_16227" data-name="Groupe 16227">
            <g id="Groupe_16226" data-name="Groupe 16226">
              <path id="Tracé_3168" data-name="Tracé 3168" d="M415.328,274.193c-.017,0-.048-.256-.168-.709a10.059,10.059,0,0,0-.712-1.846,25.52,25.52,0,0,0-3.78-5.324c-.844-.964-1.662-1.874-2.357-2.744a19.27,19.27,0,0,1-1.686-2.431,11.671,11.671,0,0,1-.851-1.8c-.078-.222-.135-.4-.167-.516a.866.866,0,0,1-.044-.184c.014,0,.091.244.267.678a13.192,13.192,0,0,0,.889,1.771,20.372,20.372,0,0,0,1.7,2.4c.7.862,1.517,1.766,2.363,2.732a24.2,24.2,0,0,1,3.761,5.378,9.184,9.184,0,0,1,.672,1.879,5.088,5.088,0,0,1,.094.534A.91.91,0,0,1,415.328,274.193Z" transform="translate(-405.562 -258.635)" fill="#dfe7d6"/>
            </g>
          </g>
        </g>
        <g id="Groupe_16231" data-name="Groupe 16231" transform="translate(17.531 40.209)">
          <g id="Groupe_16230" data-name="Groupe 16230">
            <g id="Groupe_16229" data-name="Groupe 16229">
              <path id="Tracé_3169" data-name="Tracé 3169" d="M433.224,270.558a3.934,3.934,0,0,1-.441.248,9.663,9.663,0,0,0-1.144.757,13.15,13.15,0,0,0-1.5,1.371c-.527.557-1.071,1.2-1.625,1.9-1.109,1.391-2.146,2.622-2.767,3.6-.315.487-.544.9-.695,1.186a3.771,3.771,0,0,1-.243.444.411.411,0,0,1,.041-.125c.033-.08.078-.2.148-.346a11.26,11.26,0,0,1,.657-1.218,39.666,39.666,0,0,1,2.738-3.643c.556-.695,1.106-1.343,1.643-1.9a12.205,12.205,0,0,1,1.54-1.359,8.046,8.046,0,0,1,1.182-.723c.146-.073.265-.118.344-.152A.414.414,0,0,1,433.224,270.558Z" transform="translate(-424.805 -270.557)" fill="#dfe7d6"/>
            </g>
          </g>
        </g>
        <g id="Groupe_16234" data-name="Groupe 16234" transform="translate(20.297 43.283)">
          <g id="Groupe_16233" data-name="Groupe 16233">
            <g id="Groupe_16232" data-name="Groupe 16232">
              <path id="Tracé_3170" data-name="Tracé 3170" d="M436.073,276.626a6.386,6.386,0,0,1-.932.135,12.329,12.329,0,0,0-2.211.436,6.637,6.637,0,0,0-1.98,1.039c-.457.353-.672.644-.693.628a.7.7,0,0,1,.138-.215,3.465,3.465,0,0,1,.486-.5,5.994,5.994,0,0,1,2-1.1,9.946,9.946,0,0,1,2.248-.4A5.192,5.192,0,0,1,436.073,276.626Z" transform="translate(-430.255 -276.615)" fill="#dfe7d6"/>
            </g>
          </g>
        </g>
        <g id="Groupe_16237" data-name="Groupe 16237" transform="translate(20.566 42.034)">
          <g id="Groupe_16236" data-name="Groupe 16236">
            <g id="Groupe_16235" data-name="Groupe 16235">
              <path id="Tracé_3171" data-name="Tracé 3171" d="M430.789,277.313c-.049-.027.371-.669.7-1.533.306-.871.378-1.636.433-1.626a1.486,1.486,0,0,1-.016.5,5.363,5.363,0,0,1-.272,1.179,5.688,5.688,0,0,1-.541,1.081A1.5,1.5,0,0,1,430.789,277.313Z" transform="translate(-430.785 -274.154)" fill="#dfe7d6"/>
            </g>
          </g>
        </g>
        <g id="Groupe_16240" data-name="Groupe 16240" transform="translate(17.535 31.929)">
          <g id="Groupe_16239" data-name="Groupe 16239">
            <g id="Groupe_16238" data-name="Groupe 16238">
              <path id="Tracé_3172" data-name="Tracé 3172" d="M435.953,254.24a.706.706,0,0,1-.149.079l-.438.2c-.192.082-.425.187-.687.325s-.571.276-.891.468l-.508.289c-.177.1-.351.222-.537.338-.375.227-.751.508-1.151.794a19.757,19.757,0,0,0-4.436,4.59c-.272.411-.539.8-.754,1.178-.11.189-.224.368-.32.548l-.272.519c-.181.326-.311.638-.437.906s-.225.5-.3.7l-.184.445a.708.708,0,0,1-.074.152.667.667,0,0,1,.045-.162l.157-.456c.068-.2.156-.439.279-.711s.243-.59.419-.921l.264-.526c.093-.183.206-.364.314-.556.212-.388.477-.778.747-1.194a19.044,19.044,0,0,1,4.468-4.623c.406-.285.788-.563,1.168-.788.188-.115.365-.233.544-.332l.517-.283c.325-.187.638-.321.906-.45s.5-.228.7-.3l.451-.173A.7.7,0,0,1,435.953,254.24Z" transform="translate(-424.812 -254.239)" fill="#dfe7d6"/>
            </g>
          </g>
        </g>
        <g id="Groupe_16243" data-name="Groupe 16243" transform="translate(22.013 35.28)">
          <g id="Groupe_16242" data-name="Groupe 16242">
            <g id="Groupe_16241" data-name="Groupe 16241">
              <path id="Tracé_3173" data-name="Tracé 3173" d="M433.638,261.957a1.07,1.07,0,0,1,.366-.545,2.31,2.31,0,0,1,1.476-.566,4.032,4.032,0,0,1,1.553.3,2.215,2.215,0,0,1,.587.285,3.627,3.627,0,0,1-.623-.182,4.685,4.685,0,0,0-1.512-.253,2.4,2.4,0,0,0-1.41.495A4.262,4.262,0,0,0,433.638,261.957Z" transform="translate(-433.636 -260.844)" fill="#dfe7d6"/>
            </g>
          </g>
        </g>
        <g id="Groupe_16246" data-name="Groupe 16246" transform="translate(21.015 34.633)">
          <g id="Groupe_16245" data-name="Groupe 16245">
            <g id="Groupe_16244" data-name="Groupe 16244">
              <path id="Tracé_3174" data-name="Tracé 3174" d="M431.674,262.356a3.943,3.943,0,0,0,.325-2.787.9.9,0,0,1,.173.4,2.817,2.817,0,0,1-.238,2.043C431.8,262.245,431.688,262.366,431.674,262.356Z" transform="translate(-431.67 -259.569)" fill="#dfe7d6"/>
            </g>
          </g>
        </g>
      </g>
      <g id="Groupe_16249" data-name="Groupe 16249" transform="translate(280.84 347.838)">
        <g id="Groupe_16248" data-name="Groupe 16248">
          <path id="Tracé_3175" data-name="Tracé 3175" d="M410.3,292.3a35.274,35.274,0,0,0,3.345,12.406h8.211A35.687,35.687,0,0,0,425,292.3Z" transform="translate(-410.299 -292.305)" fill="#70420d"/>
        </g>
      </g>
      <g id="Groupe_16252" data-name="Groupe 16252" transform="translate(282.137 354.353)">
        <g id="Groupe_16251" data-name="Groupe 16251">
          <g id="Groupe_16250" data-name="Groupe 16250">
            <path id="Tracé_3176" data-name="Tracé 3176" d="M424.929,305.221c0,.043-2.7.077-6.038.077s-6.038-.034-6.038-.077,2.7-.077,6.038-.077S424.929,305.179,424.929,305.221Z" transform="translate(-412.854 -305.144)" fill="#fafafa"/>
          </g>
        </g>
      </g>
      <g id="Groupe_16255" data-name="Groupe 16255" transform="translate(282.708 355.829)">
        <g id="Groupe_16254" data-name="Groupe 16254">
          <g id="Groupe_16253" data-name="Groupe 16253">
            <path id="Tracé_3177" data-name="Tracé 3177" d="M425.3,308.129c0,.043-2.535.077-5.66.077s-5.661-.035-5.661-.077,2.534-.077,5.661-.077S425.3,308.086,425.3,308.129Z" transform="translate(-413.98 -308.052)" fill="#fafafa"/>
          </g>
        </g>
      </g>
      <g id="Groupe_16258" data-name="Groupe 16258" transform="translate(284.24 350.513)">
        <g id="Groupe_16257" data-name="Groupe 16257">
          <g id="Groupe_16256" data-name="Groupe 16256">
            <path id="Tracé_3178" data-name="Tracé 3178" d="M417.077,297.576a23.23,23.23,0,0,1,0,3.783,23.23,23.23,0,0,1,0-3.783Z" transform="translate(-417 -297.576)" fill="#fafafa"/>
          </g>
        </g>
      </g>
      <g id="Groupe_16261" data-name="Groupe 16261" transform="translate(288.64 350.513)">
        <g id="Groupe_16260" data-name="Groupe 16260">
          <g id="Groupe_16259" data-name="Groupe 16259">
            <path id="Tracé_3179" data-name="Tracé 3179" d="M425.747,297.576a24.9,24.9,0,0,1,0,3.917,24.908,24.908,0,0,1,0-3.917Z" transform="translate(-425.67 -297.576)" fill="#fafafa"/>
          </g>
        </g>
      </g>
      <g id="Groupe_16264" data-name="Groupe 16264" transform="translate(292.77 350.48)">
        <g id="Groupe_16263" data-name="Groupe 16263">
          <g id="Groupe_16262" data-name="Groupe 16262">
            <path id="Tracé_3180" data-name="Tracé 3180" d="M433.886,297.511a25.9,25.9,0,0,1,0,4,26.075,26.075,0,0,1,0-4Z" transform="translate(-433.809 -297.511)" fill="#fafafa"/>
          </g>
        </g>
      </g>
      <g id="Groupe_16267" data-name="Groupe 16267" transform="translate(281.119 350.436)">
        <g id="Groupe_16266" data-name="Groupe 16266">
          <g id="Groupe_16265" data-name="Groupe 16265">
            <path id="Tracé_3181" data-name="Tracé 3181" d="M425.011,297.5c0,.043-3.171.077-7.081.077s-7.082-.034-7.082-.077,3.17-.077,7.082-.077S425.011,297.458,425.011,297.5Z" transform="translate(-410.848 -297.424)" fill="#fafafa"/>
          </g>
        </g>
      </g>
      <g id="Groupe_16270" data-name="Groupe 16270" transform="translate(114.232 229.609)">
        <g id="Groupe_16269" data-name="Groupe 16269">
          <rect id="Rectangle_134" data-name="Rectangle 134" width="17.19" height="4.547" fill="#ebebeb"/>
        </g>
      </g>
      <g id="Groupe_16273" data-name="Groupe 16273" transform="translate(106.876 234.303)">
        <g id="Groupe_16272" data-name="Groupe 16272">
          <g id="Groupe_16271" data-name="Groupe 16271">
            <path id="Tracé_3182" data-name="Tracé 3182" d="M84.758,73.213a.531.531,0,0,1-.006-.083c0-.061,0-.138-.006-.233q0-.321-.013-.9c-.007-.785-.017-1.914-.029-3.337l.053.053-17.189.035c.039-.039-.088.087.087-.088v1.163q0,.578,0,1.148,0,1.138,0,2.237l-.086-.086,12.25.039,3.616.025.978.011.256.006a.549.549,0,0,1,.091.006.455.455,0,0,1-.08.006l-.245.005-.96.012-3.6.024-12.31.039h-.085v-.086q0-1.1,0-2.237V68.665c.175-.175.049-.048.088-.087l17.189.034h.054v.053c-.013,1.437-.023,2.576-.029,3.368l-.013.883-.006.224A.357.357,0,0,1,84.758,73.213Z" transform="translate(-67.481 -68.57)" fill="#e0e0e0"/>
          </g>
        </g>
      </g>
      <g id="Groupe_16291" data-name="Groupe 16291" transform="translate(285.257 227.109)">
        <g id="Groupe_16290" data-name="Groupe 16290">
          <g id="Groupe_16289" data-name="Groupe 16289">
            <path id="Tracé_3187" data-name="Tracé 3187" d="M436.281,59.035a.526.526,0,0,1-.006-.083c0-.061,0-.138-.006-.233q0-.32-.013-.895c-.007-.785-.017-1.914-.029-3.336l.053.053-17.189.034c.039-.039-.088.087.087-.087h0v1.162q0,.578,0,1.147,0,1.139,0,2.237l-.086-.086,12.25.039,3.616.024.977.011.256.006a.629.629,0,0,1,.091.006.4.4,0,0,1-.08.006l-.245.006-.96.011-3.6.024-12.31.039h-.085v-.086q0-1.1,0-2.237,0-.569,0-1.147V54.489h0c.175-.176.049-.049.088-.088l17.189.035h.054v.053c-.013,1.436-.023,2.576-.029,3.368l-.013.883-.006.224A.356.356,0,0,1,436.281,59.035Z" transform="translate(-419.004 -54.392)" fill="#e0e0e0"/>
          </g>
        </g>
      </g>
      <g id="Groupe_16294" data-name="Groupe 16294" transform="translate(294.448 222.55)">
        <g id="Groupe_16293" data-name="Groupe 16293">
          <g id="Groupe_16292" data-name="Groupe 16292">
            <path id="Tracé_3188" data-name="Tracé 3188" d="M447.533,50.063a.458.458,0,0,1-.007-.087c0-.065,0-.145-.007-.241q-.005-.336-.016-.912c-.008-.8-.02-1.923-.034-3.308l.063.063L437.2,45.6l.087-.087h0v2.341c0,.761,0,1.5,0,2.2l-.083-.083,7.388.04,2.152.023.581.01a1.7,1.7,0,0,1,.208.011,1.329,1.329,0,0,1-.188.01l-.563.01-2.133.023-7.444.04h-.083v-.084c0-.706,0-1.444,0-2.2q0-.57,0-1.158,0-.293,0-.59v-.594h0l.088-.088,10.327.024h.064v.063c-.014,1.4-.026,2.54-.034,3.347-.007.378-.012.677-.016.9A2.671,2.671,0,0,1,447.533,50.063Z" transform="translate(-437.115 -45.408)" fill="#e0e0e0"/>
          </g>
        </g>
      </g>
      <g id="Groupe_16296" data-name="Groupe 16296" transform="translate(83 360.189)">
        <path id="Tracé_3189" data-name="Tracé 3189" d="M249.362,316.775c0,.073-51.252.132-114.46.132-63.23,0-114.472-.059-114.472-.132s51.242-.132,114.472-.132C198.11,316.643,249.362,316.7,249.362,316.775Z" transform="translate(-20.43 -316.643)" fill="#263238"/>
      </g>
      <g id="Groupe_16298" data-name="Groupe 16298" transform="translate(149.456 259.154)">
        <rect id="Rectangle_135" data-name="Rectangle 135" width="119.231" height="97.918" fill="#f1f2ef"/>
      </g>
      <g id="Groupe_16299" data-name="Groupe 16299" transform="translate(147.087 270.496)">
        <rect id="Rectangle_136" data-name="Rectangle 136" width="125.124" height="3.317" rx="1.659" fill="#e0e0e0"/>
      </g>
      <g id="Groupe_16303" data-name="Groupe 16303" transform="translate(156.55 280.787)">
        <g id="Groupe_16300" data-name="Groupe 16300" transform="translate(0.132 0.132)">
          <rect id="Rectangle_137" data-name="Rectangle 137" width="58.312" height="41.812" fill="#fafafa"/>
        </g>
        <g id="Groupe_16302" data-name="Groupe 16302">
          <g id="Groupe_16301" data-name="Groupe 16301">
            <path id="Tracé_3190" data-name="Tracé 3190" d="M223.814,202.116s-.008-.264-.012-.767-.007-1.249-.012-2.218c-.007-1.946-.016-4.794-.028-8.435-.013-7.277-.032-17.717-.056-30.392l.107.107-58.307.025h0l.132-.132c0,14.979-.009,29.188-.012,41.812l-.12-.12,42.048.059,11.976.032,3.183.015.822.007c.185,0,.283.007.283.007s-.088,0-.269.007l-.808.007-3.159.014-11.949.032-42.127.059h-.12v-.12c0-12.624-.008-26.833-.012-41.812v-.132h.137l58.307.025h.108v.107c-.023,12.7-.043,23.165-.056,30.459-.012,3.63-.021,6.471-.027,8.411-.005.96-.009,1.7-.012,2.2S223.814,202.116,223.814,202.116Z" transform="translate(-165.37 -160.172)" fill="#263238"/>
          </g>
        </g>
      </g>
      <g id="Groupe_16304" data-name="Groupe 16304" transform="translate(223.978 277.595)">
        <rect id="Rectangle_138" data-name="Rectangle 138" width="39.763" height="75.84" fill="#44680e"/>
      </g>
      <g id="Groupe_16305" data-name="Groupe 16305" transform="translate(229.099 282.688)">
        <rect id="Rectangle_139" data-name="Rectangle 139" width="29.889" height="31.338" fill="#fafafa"/>
      </g>
      <g id="Groupe_16306" data-name="Groupe 16306" transform="translate(229.099 323.281)">
        <rect id="Rectangle_140" data-name="Rectangle 140" width="29.889" height="25.121" transform="translate(0 0)" fill="#fafafa"/>
      </g>
      <g id="Groupe_16307" data-name="Groupe 16307" transform="translate(226.348 316.895)">
        <circle id="Ellipse_151" data-name="Ellipse 151" cx="1.759" cy="1.759" r="1.759" transform="translate(0 0)" fill="#e0e0e0"/>
      </g>
      <g id="Groupe_16315" data-name="Groupe 16315" transform="translate(149.081 259.212)" opacity="0.2">
        <g id="Groupe_16308" data-name="Groupe 16308">
          <path id="Tracé_3191" data-name="Tracé 3191" d="M161.487,117.656c0,5.45-4.957,10.942-10.461,10.942l-.376-10.942h10.837" transform="translate(-150.65 -117.656)"/>
        </g>
        <g id="Groupe_16309" data-name="Groupe 16309" transform="translate(30.769)">
          <path id="Tracé_3192" data-name="Tracé 3192" d="M221.251,129.052c5.5,0,9.966-5.1,9.966-11.4H211.285C211.285,123.95,215.747,129.052,221.251,129.052Z" transform="translate(-211.285 -117.656)"/>
        </g>
        <g id="Groupe_16310" data-name="Groupe 16310" transform="translate(70.635)">
          <path id="Tracé_3193" data-name="Tracé 3193" d="M299.812,129.052c5.5,0,9.966-5.1,9.966-11.4H289.845C289.845,123.95,294.308,129.052,299.812,129.052Z" transform="translate(-289.845 -117.656)"/>
        </g>
        <g id="Groupe_16311" data-name="Groupe 16311" transform="translate(10.837)">
          <path id="Tracé_3194" data-name="Tracé 3194" d="M181.971,129.052c5.5,0,9.966-5.1,9.966-11.4H172.005C172.005,123.95,176.467,129.052,181.971,129.052Z" transform="translate(-172.005 -117.656)"/>
        </g>
        <g id="Groupe_16312" data-name="Groupe 16312" transform="translate(50.702)">
          <path id="Tracé_3195" data-name="Tracé 3195" d="M260.531,129.052c5.5,0,9.966-5.1,9.966-11.4H250.565C250.565,123.95,255.028,129.052,260.531,129.052Z" transform="translate(-250.565 -117.656)"/>
        </g>
        <g id="Groupe_16313" data-name="Groupe 16313" transform="translate(90.568)">
          <path id="Tracé_3196" data-name="Tracé 3196" d="M339.13,129.052c5.526,0,10-5.1,10-11.4H329.126C329.126,123.95,333.605,129.052,339.13,129.052Z" transform="translate(-329.126 -117.656)"/>
        </g>
        <g id="Groupe_16314" data-name="Groupe 16314" transform="translate(110.577)">
          <path id="Tracé_3197" data-name="Tracé 3197" d="M368.557,117.656c0,6.294,3.525,11.169,8.953,11.169l.214-11.169Z" transform="translate(-368.557 -117.656)"/>
        </g>
      </g>
      <g id="Groupe_16316" data-name="Groupe 16316" transform="translate(139.589 236.034)">
        <path id="Tracé_3198" data-name="Tracé 3198" d="M147.452,71.98,131.947,95.1H271.277L256.209,71.98Z" transform="translate(-131.947 -71.98)" fill="#dfe7d6"/>
      </g>
      <g id="Groupe_16317" data-name="Groupe 16317" transform="translate(139.589 259.154)">
        <path id="Tracé_3199" data-name="Tracé 3199" d="M131.946,117.542a9.967,9.967,0,0,0,19.933,0Z" transform="translate(-131.946 -117.542)" fill="#44680e"/>
      </g>
      <g id="Groupe_16318" data-name="Groupe 16318" transform="translate(159.522 259.154)">
        <path id="Tracé_3200" data-name="Tracé 3200" d="M171.227,117.542a9.967,9.967,0,0,0,19.933,0Z" transform="translate(-171.227 -117.542)" fill="#dfe7d6"/>
      </g>
      <g id="Groupe_16319" data-name="Groupe 16319" transform="translate(179.455 259.154)">
        <path id="Tracé_3201" data-name="Tracé 3201" d="M210.507,117.542a9.967,9.967,0,0,0,19.933,0Z" transform="translate(-210.507 -117.542)" fill="#44680e"/>
      </g>
      <g id="Groupe_16320" data-name="Groupe 16320" transform="translate(199.388 259.154)">
        <path id="Tracé_3202" data-name="Tracé 3202" d="M249.787,117.542a9.967,9.967,0,0,0,19.933,0Z" transform="translate(-249.787 -117.542)" fill="#dfe7d6"/>
      </g>
      <g id="Groupe_16321" data-name="Groupe 16321" transform="translate(219.321 259.154)">
        <path id="Tracé_3203" data-name="Tracé 3203" d="M289.067,117.542a9.967,9.967,0,0,0,19.933,0Z" transform="translate(-289.067 -117.542)" fill="#44680e"/>
      </g>
      <g id="Groupe_16322" data-name="Groupe 16322" transform="translate(239.254 259.154)">
        <path id="Tracé_3204" data-name="Tracé 3204" d="M328.348,117.542a10.005,10.005,0,0,0,20.009,0Z" transform="translate(-328.348 -117.542)" fill="#dfe7d6"/>
      </g>
      <g id="Groupe_16326" data-name="Groupe 16326" transform="translate(259.263 259.154)">
        <path id="Tracé_3208" data-name="Tracé 3208" d="M367.778,117.542a9.829,9.829,0,1,0,19.657,0Z" transform="translate(-367.778 -117.542)" fill="#44680e"/>
      </g>
      <g id="Groupe_16328" data-name="Groupe 16328" transform="translate(159.522 236.034)" opacity="0.3">
        <path id="Tracé_3209" data-name="Tracé 3209" d="M171.227,95.159,181.749,71.98h14.22l-4.81,23.178Z" transform="translate(-171.227 -71.98)" fill="#fff"/>
      </g>
      <g id="Groupe_16329" data-name="Groupe 16329" transform="translate(199.189 236.034)" opacity="0.3">
        <path id="Tracé_3210" data-name="Tracé 3210" d="M249.394,71.98l.2,23.178h19.933L267.309,71.98Z" transform="translate(-249.394 -71.98)" fill="#fff"/>
      </g>
      <g id="Groupe_16330" data-name="Groupe 16330" transform="translate(233.962 236.034)" opacity="0.3">
        <path id="Tracé_3211" data-name="Tracé 3211" d="M323.212,95.159,317.92,71.98h15.158l10.066,23.178Z" transform="translate(-317.92 -71.98)" fill="#fff"/>
      </g>
      <g id="Groupe_16331" data-name="Groupe 16331" transform="translate(149.456 229.213)">
        <rect id="Rectangle_141" data-name="Rectangle 141" width="119.231" height="6.821" rx="3.41" fill="#44680e"/>
      </g>
      <g id="Groupe_16333" data-name="Groupe 16333" transform="translate(139.589 259.08)">
        <g id="Groupe_16332" data-name="Groupe 16332">
          <path id="Tracé_3212" data-name="Tracé 3212" d="M271.277,117.528c0,.073-31.193.132-69.662.132s-69.669-.059-69.669-.132,31.187-.132,69.669-.132S271.277,117.455,271.277,117.528Z" transform="translate(-131.946 -117.396)" fill="#263238"/>
        </g>
      </g>
      <g id="Groupe_16336" data-name="Groupe 16336" transform="translate(149.369 273.681)">
        <g id="Groupe_16335" data-name="Groupe 16335">
          <path id="Tracé_3213" data-name="Tracé 3213" d="M270.674,225.231s-.007-.125-.01-.372-.006-.618-.01-1.1c0-.975-.01-2.411-.018-4.279-.008-3.748-.019-9.224-.033-16.162-.012-13.886-.028-33.617-.048-57.017l.119.119-60.007.013-59.329-.013.119-.119c-.02,23.585-.037,43.489-.048,57.5-.014,7-.026,12.529-.033,16.313-.008,1.886-.014,3.336-.018,4.32q-.007.73-.01,1.11c0,.249-.01.376-.01.376s-.007-.127-.01-.376-.006-.624-.01-1.11c0-.984-.01-2.434-.018-4.32-.008-3.784-.019-9.312-.033-16.313-.012-14.013-.028-33.917-.048-57.5v-.12h.12l59.329-.013,60.007.013h.119v.119c-.02,23.4-.037,43.131-.048,57.017-.014,6.938-.025,12.415-.033,16.162-.008,1.868-.014,3.3-.018,4.279q-.006.722-.01,1.1C270.681,225.105,270.674,225.231,270.674,225.231Z" transform="translate(-151.218 -146.168)" fill="#263238"/>
        </g>
      </g>
      <g id="Groupe_16338" data-name="Groupe 16338" transform="translate(149.488 270.363)">
        <g id="Groupe_16337" data-name="Groupe 16337">
          <path id="Tracé_3214" data-name="Tracé 3214" d="M271.185,139.763c0,.073-26.805.132-59.863.132s-59.869-.059-59.869-.132,26.8-.132,59.869-.132S271.185,139.69,271.185,139.763Z" transform="translate(-151.453 -139.631)" fill="#263238"/>
        </g>
      </g>
      <g id="Groupe_16340" data-name="Groupe 16340" transform="translate(153.082 235.902)">
        <g id="Groupe_16339" data-name="Groupe 16339">
          <path id="Tracé_3215" data-name="Tracé 3215" d="M271.365,71.852c0,.073-25.26.132-56.412.132s-56.418-.059-56.418-.132,25.254-.132,56.418-.132S271.365,71.779,271.365,71.852Z" transform="translate(-158.535 -71.72)" fill="#263238"/>
        </g>
      </g>
      <g id="Groupe_16347" data-name="Groupe 16347" transform="translate(156.5 281.134)">
        <g id="Groupe_16342" data-name="Groupe 16342" transform="translate(18.107)">
          <g id="Groupe_16341" data-name="Groupe 16341">
            <path id="Tracé_3216" data-name="Tracé 3216" d="M201.086,202.239c-.073,0-.132-9.265-.132-20.691s.059-20.693.132-20.693.132,9.263.132,20.693S201.159,202.239,201.086,202.239Z" transform="translate(-200.954 -160.855)" fill="#e0e0e0"/>
          </g>
        </g>
        <g id="Groupe_16344" data-name="Groupe 16344" transform="translate(39.037)">
          <g id="Groupe_16343" data-name="Groupe 16343">
            <path id="Tracé_3217" data-name="Tracé 3217" d="M242.331,202.239c-.073,0-.132-9.265-.132-20.691s.059-20.693.132-20.693.132,9.263.132,20.693S242.4,202.239,242.331,202.239Z" transform="translate(-242.199 -160.855)" fill="#e0e0e0"/>
          </g>
        </g>
        <g id="Groupe_16346" data-name="Groupe 16346" transform="translate(0 21.177)">
          <g id="Groupe_16345" data-name="Groupe 16345">
            <path id="Tracé_3218" data-name="Tracé 3218" d="M223.74,202.719c0,.073-13.09.132-29.233.132s-29.236-.059-29.236-.132,13.087-.132,29.236-.132S223.74,202.646,223.74,202.719Z" transform="translate(-165.271 -202.587)" fill="#e0e0e0"/>
          </g>
        </g>
      </g>
      <g id="Groupe_16349" data-name="Groupe 16349" transform="translate(223.978 277.594)">
        <g id="Groupe_16348" data-name="Groupe 16348">
          <path id="Tracé_3219" data-name="Tracé 3219" d="M337.31,153.881a2.873,2.873,0,0,1-.26.37l-.787,1.029-2.935,3.753-.027.036h-.046l-15.3.038-14.59-.035h-.041l-.028-.028-3.714-3.756-1-1.033-.256-.274c-.056-.063-.084-.1-.08-.1s.038.024.1.08l.275.254,1.038,1,3.775,3.694-.069-.028,14.59-.035,15.3.038-.074.036,3-3.7.826-1A2.94,2.94,0,0,1,337.31,153.881Z" transform="translate(-298.245 -153.88)" fill="#263238"/>
        </g>
      </g>
      <g id="Groupe_16351" data-name="Groupe 16351" transform="translate(223.909 348.27)">
        <g id="Groupe_16350" data-name="Groupe 16350">
          <path id="Tracé_3220" data-name="Tracé 3220" d="M338.011,298.181s-.036-.023-.1-.077l-.263-.244-.992-.956-3.611-3.55.068.028-15.073.036-14.816-.035.068-.028-3.775,3.651-1.038.983-.275.251a.447.447,0,0,1-.1.079s.024-.037.08-.1l.256-.27,1-1.021,3.715-3.713.028-.028h.04l14.816-.035,15.073.036h.04l.028.028,3.55,3.611.956.992.244.263A.427.427,0,0,1,338.011,298.181Z" transform="translate(-298.108 -293.155)" fill="#263238"/>
        </g>
      </g>
      <g id="Groupe_16353" data-name="Groupe 16353" transform="translate(228.973 282.688)">
        <g id="Groupe_16352" data-name="Groupe 16352">
          <path id="Tracé_3221" data-name="Tracé 3221" d="M338.1,164.988a.771.771,0,0,1,.011.146c0,.107.006.248.011.43,0,.391.011.949.02,1.667.008,1.469.02,3.592.035,6.261.012,5.368.028,12.932.048,21.765v.124H338.1l-15.477.008-14.412-.007h-.126v-.125c.019-9.117.036-16.948.047-22.513.015-2.768.028-4.971.036-6.5.009-.746.016-1.326.02-1.732,0-.189.008-.335.011-.447a.734.734,0,0,1,.011-.151.817.817,0,0,1,.011.151c0,.111.006.258.011.447,0,.406.012.986.02,1.732.009,1.525.021,3.728.036,6.5.012,5.565.028,13.4.048,22.513l-.125-.125,14.412-.007,15.477.008-.124.124c.019-8.833.036-16.4.048-21.765.015-2.669.027-4.792.035-6.261.009-.719.016-1.276.02-1.667l.01-.43A.767.767,0,0,1,338.1,164.988Z" transform="translate(-308.088 -163.919)" fill="#263238"/>
        </g>
      </g>
      <g id="Groupe_16355" data-name="Groupe 16355" transform="translate(228.906 323.149)">
        <g id="Groupe_16354" data-name="Groupe 16354">
          <path id="Tracé_3222" data-name="Tracé 3222" d="M338.037,268.9a.551.551,0,0,1-.01-.12l-.01-.355c0-.326-.011-.787-.019-1.378-.008-1.218-.02-2.973-.035-5.181-.012-4.451-.028-10.727-.048-18.087l.122.123-14.977.009-14.982-.009.123-.123c-.019,7.361-.036,13.637-.048,18.088-.015,2.208-.027,3.963-.035,5.181-.009.591-.015,1.051-.02,1.377,0,.148-.007.264-.01.355a.525.525,0,0,1-.011.12.551.551,0,0,1-.01-.12c0-.091-.006-.207-.01-.355,0-.326-.011-.787-.019-1.377-.008-1.218-.02-2.973-.035-5.181-.012-4.451-.028-10.727-.048-18.088v-.123h.123l14.982-.009,14.977.009h.123v.123c-.02,7.36-.036,13.636-.048,18.087l-.035,5.181c-.009.591-.015,1.051-.02,1.378l-.01.355A.511.511,0,0,1,338.037,268.9Z" transform="translate(-307.956 -243.651)" fill="#263238"/>
        </g>
      </g>
      <g id="Groupe_16360" data-name="Groupe 16360" transform="translate(237.913 296.666)">
        <path id="Tracé_3224" data-name="Tracé 3224" d="M326.543,195.011a1.476,1.476,0,0,1-.6-.526,1.576,1.576,0,0,1-.056-1.566,1.464,1.464,0,0,1,.559-.567,1.826,1.826,0,0,1,1.657-.06,1.509,1.509,0,0,1,.1,2.66,1.831,1.831,0,0,1-1.657.059Zm1.284-.552a.858.858,0,0,0,.319-.348,1.056,1.056,0,0,0-.035-.979.871.871,0,0,0-.344-.324.941.941,0,0,0-.477-.1.93.93,0,0,0-.468.138.857.857,0,0,0-.32.347,1.058,1.058,0,0,0,.036.979.871.871,0,0,0,.343.324.991.991,0,0,0,.946-.035Z" transform="translate(-325.707 -191.788)" fill="#fff"/>
        <path id="Tracé_3225" data-name="Tracé 3225" d="M334.958,192.088a1.018,1.018,0,0,1,.459.355,1.114,1.114,0,0,1,.041,1.138.994.994,0,0,1-.432.388,1.661,1.661,0,0,1-.677.153l-.6.022.029.815-.684.024-.106-2.955,1.279-.046A1.645,1.645,0,0,1,334.958,192.088Zm-.2,1.329a.465.465,0,0,0,.148-.384.471.471,0,0,0-.175-.376.719.719,0,0,0-.473-.116l-.557.02.037,1.026.557-.02A.719.719,0,0,0,334.753,193.416Z" transform="translate(-329.295 -191.718)" fill="#fff"/>
        <path id="Tracé_3226" data-name="Tracé 3226" d="M341.373,194.1l.02.549-2.288.083L339,191.779l2.233-.08.02.549-1.554.056.023.642,1.373-.05.019.532-1.372.049.024.684Z" transform="translate(-332.254 -191.58)" fill="#fff"/>
        <path id="Tracé_3227" data-name="Tracé 3227" d="M347.292,191.464l.106,2.955-.561.02L345.3,192.7l.064,1.795-.675.024-.106-2.955.565-.02,1.534,1.741-.064-1.794Z" transform="translate(-335.004 -191.464)" fill="#fff"/>
      </g>
      <g id="Groupe_16364" data-name="Groupe 16364" transform="translate(144.962 352.969)">
        <g id="Groupe_16361" data-name="Groupe 16361" transform="translate(0.225 0.107)">
          <rect id="Rectangle_143" data-name="Rectangle 143" width="126.367" height="6.763" fill="#7cae67"/>
        </g>
        <g id="Groupe_16363" data-name="Groupe 16363">
          <g id="Groupe_16362" data-name="Groupe 16362">
            <path id="Tracé_3228" data-name="Tracé 3228" d="M269.125,302.547c0,.073-28.341.132-63.293.132s-63.3-.059-63.3-.132,28.335-.132,63.3-.132S269.125,302.474,269.125,302.547Z" transform="translate(-142.533 -302.415)" fill="#7cae67"/>
          </g>
        </g>
      </g>
      <g id="Groupe_16365" data-name="Groupe 16365" transform="translate(159.917 259.212)">
        <path id="Tracé_3229" data-name="Tracé 3229" d="M172.005,117.656" transform="translate(-172.005 -117.656)"/>
      </g>
      <g id="Groupe_16367" data-name="Groupe 16367" transform="translate(199.568 327.797)">
        <rect id="Rectangle_144" data-name="Rectangle 144" width="16.276" height="5.072" fill="#ebebeb"/>
      </g>
      <g id="Groupe_16368" data-name="Groupe 16368" transform="translate(157.287 327.251)">
        <rect id="Rectangle_145" data-name="Rectangle 145" width="16.276" height="5.072" transform="translate(0 0)" fill="#ebebeb"/>
      </g>
      <g id="Groupe_16369" data-name="Groupe 16369" transform="translate(190.89 333.017)">
        <rect id="Rectangle_146" data-name="Rectangle 146" width="16.276" height="5.072" fill="#f5f5f5"/>
      </g>
      <g id="Groupe_16371" data-name="Groupe 16371" transform="translate(169.593 340.759)">
        <g id="Groupe_16370" data-name="Groupe 16370">
          <path id="Tracé_3230" data-name="Tracé 3230" d="M207.481,283.572a3.274,3.274,0,0,1-.017-.359c-.006-.251-.012-.585-.021-1-.011-.889-.027-2.141-.047-3.708l.085.085-16.275.047c.059-.059-.133.131.131-.132v1.307q0,.649,0,1.284c0,.847,0,1.677,0,2.481l-.128-.128,11.6.059,3.417.037.926.017a2.711,2.711,0,0,1,.331.016,1.947,1.947,0,0,1-.3.016l-.9.017-3.387.036-11.69.059h-.128v-.129c0-.8,0-1.633,0-2.481q0-.636,0-1.284,0-.324,0-.652V278.5c.264-.264.074-.073.133-.132l16.275.047h.086v.085c-.02,1.588-.036,2.858-.047,3.759-.009.412-.016.739-.021.986A2.328,2.328,0,0,1,207.481,283.572Z" transform="translate(-191.073 -278.355)" fill="#209602"/>
        </g>
      </g>
    </g>
  </g>
</svg>
