<svg xmlns="http://www.w3.org/2000/svg" width="1000" height="875.3" viewBox="0 0 66.857 58.5">
    <g id="image" transform="translate(-0.002 -1)">
        <path id="Path_3270" data-name="Path 3270" d="M15.538,10.268A6.268,6.268,0,1,1,9.27,4,6.268,6.268,0,0,1,15.538,10.268Z" transform="translate(9.536 9.536)" fill="#ccc"/>
        <path id="Path_3271" data-name="Path 3271" d="M8.359,1A8.357,8.357,0,0,0,0,9.357V51.143A8.357,8.357,0,0,0,8.359,59.5H58.5a8.357,8.357,0,0,0,8.357-8.357V9.357A8.357,8.357,0,0,0,58.5,1H8.359ZM58.5,5.179a4.179,4.179,0,0,1,4.179,4.179V36.518L46.9,28.382a2.089,2.089,0,0,0-2.411.389l-15.5,15.5-11.115-7.4a2.089,2.089,0,0,0-2.632.259L4.181,46.964V9.357A4.179,4.179,0,0,1,8.359,5.179Z" transform="translate(0)" fill="#ccc"/>
    </g>
</svg>
