<svg xmlns="http://www.w3.org/2000/svg" width="1000" height="1000" viewBox="0 0 29.667 29.667">
    <path id="percent_1_" data-name="percent (1)" d="M30.287,3.379a1.545,1.545,0,0,1,0,2.185L5.565,30.287A1.545,1.545,0,0,1,3.379,28.1L28.1,3.379a1.545,1.545,0,0,1,2.185,0ZM8.181,11.889a3.708,3.708,0,1,1,3.708-3.708A3.708,3.708,0,0,1,8.181,11.889Zm0,2.472A6.181,6.181,0,1,0,2,8.181,6.181,6.181,0,0,0,8.181,14.361ZM25.486,29.194a3.708,3.708,0,1,1,3.708-3.708A3.708,3.708,0,0,1,25.486,29.194Zm0,2.472a6.181,6.181,0,1,0-6.181-6.181A6.181,6.181,0,0,0,25.486,31.667Z" transform="translate(-2 -2)" fill="#209602"/>
</svg>
