<svg id="qr-code-scan" xmlns="http://www.w3.org/2000/svg" width="28.667" height="28.667" viewBox="0 0 28.667 28.667">
  <path id="Tracé_3260" data-name="Tracé 3260" d="M0,.9A.9.9,0,0,1,.9,0H6.271a.9.9,0,1,1,0,1.792H1.792V6.271A.9.9,0,1,1,0,6.271ZM21.5.9a.9.9,0,0,1,.9-.9h5.375a.9.9,0,0,1,.9.9V6.271a.9.9,0,0,1-1.792,0V1.792H22.4a.9.9,0,0,1-.9-.9ZM.9,21.5a.9.9,0,0,1,.9.9v4.479H6.271a.9.9,0,0,1,0,1.792H.9a.9.9,0,0,1-.9-.9V22.4a.9.9,0,0,1,.9-.9Zm26.875,0a.9.9,0,0,1,.9.9v5.375a.9.9,0,0,1-.9.9H22.4a.9.9,0,0,1,0-1.792h4.479V22.4A.9.9,0,0,1,27.771,21.5ZM7.167,7.167H8.958V8.958H7.167Z" transform="translate(0 0)" fill="#fff"/>
  <path id="Tracé_3261" data-name="Tracé 3261" d="M10.958,2H2v8.958h8.958ZM3.792,3.792H9.167V9.167H3.792ZM7.375,18.125H5.583v1.792H7.375Z" transform="translate(1.583 1.583)" fill="#fff"/>
  <path id="Tracé_3262" data-name="Tracé 3262" d="M10.958,12.958H2v8.958h8.958ZM3.792,14.75H9.167v5.375H3.792ZM18.125,4h1.792V5.792H18.125Z" transform="translate(1.583 3.167)" fill="#fff"/>
  <path id="Tracé_3263" data-name="Tracé 3263" d="M9.792,2H18.75v8.958H9.792Zm1.792,1.792V9.167h5.375V3.792ZM8,12.75v3.583H9.792v1.792H8v1.792h3.583V16.333h1.792v3.583h1.792V18.125H18.75V16.333H13.375V12.75Zm3.583,3.583H9.792V14.542h1.792Zm7.167,3.583H16.958v1.792H13.375V23.5H18.75ZM11.583,23.5V21.708H8V23.5Z" transform="translate(6.333 1.583)" fill="#fff"/>
  <path id="Tracé_3264" data-name="Tracé 3264" d="M12,9.792h3.583V8H12Z" transform="translate(9.5 6.333)" fill="#fff"/>
</svg>
