<svg id="search_1_" data-name="search (1)" xmlns="http://www.w3.org/2000/svg" width="25.087" height="25.087" viewBox="0 0 25.087 25.087">
  <path id="Tracé_30" data-name="Tracé 30" d="M5.56,146.654l-.873,3.26-3.192.068A12.566,12.566,0,0,1,1.4,138.268h0l2.842.521,1.245,2.824a7.486,7.486,0,0,0,.07,5.04Z" transform="translate(0 -131.493)" fill="#fbbb00"/>
  <path id="Tracé_31" data-name="Tracé 31" d="M273.677,208.176a12.539,12.539,0,0,1-4.472,12.125h0l-3.579-.183-.507-3.162a7.476,7.476,0,0,0,3.217-3.818h-6.707v-4.962h12.049Z" transform="translate(-248.809 -197.976)" fill="#518ef8"/>
  <path id="Tracé_32" data-name="Tracé 32" d="M49.41,316.573h0a12.548,12.548,0,0,1-18.9-3.838l4.065-3.328a7.46,7.46,0,0,0,10.75,3.82Z" transform="translate(-29.014 -294.248)" fill="#28b446"/>
  <path id="Tracé_33" data-name="Tracé 33" d="M47.772,2.888,43.708,6.215a7.459,7.459,0,0,0-11,3.906L28.625,6.775h0A12.546,12.546,0,0,1,47.772,2.888Z" transform="translate(-27.221)" fill="#f14336"/>
</svg>
