<svg id="shop" xmlns="http://www.w3.org/2000/svg" width="19.968" height="19.968" viewBox="0 0 19.968 19.968">
  <g id="Groupe_87" data-name="Groupe 87" transform="translate(0 0)">
    <path id="Tracé_184" data-name="Tracé 184" d="M19.931,4.767,18.505.488A.713.713,0,0,0,17.828,0H2.139a.713.713,0,0,0-.677.488L.036,4.767A.727.727,0,0,0,0,4.973v.732A3.551,3.551,0,0,0,1.426,8.542v9.286a2.139,2.139,0,0,0,2.139,2.139H16.4a2.139,2.139,0,0,0,2.139-2.139V8.542a3.551,3.551,0,0,0,1.426-2.837V4.973A.725.725,0,0,0,19.931,4.767Zm-4.956-3.34h2.338l.951,2.853h-3.29Zm-4.279,0H13.55V4.279H10.7Zm-4.279,0H9.271V4.279H6.418Zm-3.765,0H4.992V4.279H1.7ZM11.41,18.541H8.558V12.836H11.41v5.705Zm5.705-.713a.713.713,0,0,1-.713.713H12.836V12.123a.713.713,0,0,0-.713-.713H7.844a.713.713,0,0,0-.713.713v6.418H3.566a.713.713,0,0,1-.713-.713V9.2a3.525,3.525,0,0,0,2.853-.655,3.614,3.614,0,0,0,4.279,0,3.614,3.614,0,0,0,4.279,0,3.525,3.525,0,0,0,2.853.655v8.629ZM16.4,7.844a2.107,2.107,0,0,1-1.6-.74.713.713,0,0,0-1.074,0,2.152,2.152,0,0,1-3.2,0,.737.737,0,0,0-1.042-.032L9.447,7.1a2.152,2.152,0,0,1-3.2,0A.737.737,0,0,0,5.2,7.073L5.168,7.1a2.107,2.107,0,0,1-1.6.74A2.139,2.139,0,0,1,1.426,5.705H18.541A2.139,2.139,0,0,1,16.4,7.844Z" transform="translate(0 0)" fill="#209602"/>
  </g>
</svg>
