<svg xmlns="http://www.w3.org/2000/svg" width="22" height="20.625" viewBox="0 0 22 20.625">
  <path id="sliders-solid" d="M0,33.187a1.374,1.374,0,0,1,1.375-1.375H3.724A3.435,3.435,0,0,1,6.875,29.75a3.472,3.472,0,0,1,3.15,2.063h10.6a1.375,1.375,0,1,1,0,2.75h-10.6a3.472,3.472,0,0,1-3.15,2.062,3.435,3.435,0,0,1-3.151-2.062H1.375A1.374,1.374,0,0,1,0,33.187Zm8.25,0a1.375,1.375,0,1,0-1.375,1.375A1.374,1.374,0,0,0,8.25,33.187Zm6.875-10.312a3.472,3.472,0,0,1,3.15,2.063h2.35a1.375,1.375,0,1,1,0,2.75h-2.35a3.472,3.472,0,0,1-3.15,2.063,3.431,3.431,0,0,1-3.15-2.062H1.375a1.375,1.375,0,1,1,0-2.75h10.6A3.431,3.431,0,0,1,15.125,22.875ZM16.5,26.312a1.375,1.375,0,1,0-1.375,1.375A1.374,1.374,0,0,0,16.5,26.312Zm4.125-8.25a1.375,1.375,0,1,1,0,2.75H11.4a3.472,3.472,0,0,1-3.15,2.063A3.431,3.431,0,0,1,5.1,20.813H1.375a1.375,1.375,0,1,1,0-2.75H5.1A3.434,3.434,0,0,1,8.25,16a3.476,3.476,0,0,1,3.15,2.063ZM6.875,19.438A1.375,1.375,0,1,0,8.25,18.063,1.374,1.374,0,0,0,6.875,19.438Z" transform="translate(0 -16)" fill="#209602"/>
</svg>
